<svg width="214" height="152" viewBox="0 0 214 152" fill="none" xmlns="http://www.w3.org/2000/svg">
<g id="Group">
<g id="Vector">
<path d="M76.9829 125.036C76.9829 125.036 71.3491 131.356 63.1123 131.356C62.1206 131.758 61.1338 132.134 60.0312 132.02C59.061 131.92 59.0928 131.125 59.9336 130.797C59.0308 130.911 57.3276 130.603 58.3008 128.842C59.0386 127.508 63.1885 129.54 63.1885 129.54C63.1885 129.54 67.5498 130.656 75.7519 124.052" fill="url(#paint0_linear)"/>
<path d="M76.9829 125.036C76.9829 125.036 71.3491 131.356 63.1123 131.356C62.1206 131.758 61.1338 132.134 60.0312 132.02C59.061 131.92 59.0928 131.125 59.9336 130.797C59.0308 130.911 57.3276 130.603 58.3008 128.842C59.0386 127.508 63.1885 129.54 63.1885 129.54C63.1885 129.54 67.5498 130.656 75.7519 124.052" stroke="black" stroke-width="0.4243" stroke-miterlimit="10"/>
</g>
<g id="wing2">
<g id="Group_2">
<path id="Vector_2" d="M105.484 82.0744C105.484 82.0744 57.8862 5.12657 96.7573 9.09287C135.628 13.0587 107.071 43.9967 119.763 76.5216" fill="#F6F6F6"/>
<path id="Vector_3" d="M104.947 82.4054C104.947 82.4054 104.64 81.8119 104.063 80.699C103.473 79.5975 102.6 77.9899 101.457 75.9631C99.1613 71.9161 95.9151 66.1097 92.428 58.9269C90.6915 55.3331 88.8644 51.4094 87.1263 47.1699C85.3945 42.9302 83.7101 38.3842 82.4367 33.52C81.8037 31.0883 81.2738 28.5766 80.9576 25.9857C80.676 23.3972 80.5413 20.7097 81.0508 18.0111C81.3105 16.6703 81.6996 15.3201 82.3655 14.0656C83.0236 12.8131 83.9397 11.6632 85.0672 10.7675C86.1923 9.86948 87.498 9.21928 88.8494 8.80808C90.2062 8.42678 91.5934 8.19828 92.973 8.14778C93.6636 8.09968 94.3482 8.14058 95.0359 8.13478C95.7244 8.18948 96.3817 8.21578 97.0952 8.29558C98.4165 8.48298 99.7139 8.58888 101.046 8.87198C103.723 9.35108 106.313 10.0993 108.798 11.1569C111.254 12.2637 113.552 13.8552 115.228 15.9759C116.931 18.0846 117.847 20.6641 118.272 23.1703C118.698 25.694 118.701 28.1886 118.592 30.5989C118.483 33.0133 118.212 35.3503 117.954 37.6212C117.413 42.159 116.83 46.431 116.537 50.4011C116.259 54.3703 116.241 58.0262 116.465 61.2529C116.718 64.4759 117.122 67.2744 117.65 69.5381C118.153 71.8065 118.796 73.5292 119.393 74.6298C119.959 75.7442 120.35 76.2925 120.35 76.2925L119.175 76.751C119.175 76.751 119.126 76.0467 118.864 74.8128C118.728 74.2008 118.56 73.446 118.363 72.5586C118.196 71.6666 117.861 70.6828 117.639 69.5408C117.083 67.283 116.644 64.4877 116.35 61.2617C116.08 58.0318 116.071 54.368 116.274 50.3853C116.44 46.3988 116.885 42.0958 117.278 37.5531C117.464 35.282 117.656 32.9482 117.681 30.5702C117.708 28.1963 117.619 25.7649 117.132 23.3875C116.658 21.0122 115.693 18.7214 114.149 16.8433C112.608 14.9607 110.506 13.5409 108.187 12.54C105.844 11.5888 103.334 10.9056 100.794 10.4941C100.172 10.358 99.5061 10.2913 98.849 10.2101L96.877 9.94998C96.2726 9.88128 95.6023 9.84998 94.9678 9.79708C94.3286 9.80308 93.6831 9.76068 93.0488 9.80468C91.7722 9.84698 90.524 10.0565 89.3263 10.3861C88.1387 10.745 87.0339 11.2994 86.09 12.0474C84.1752 13.5361 83.0786 15.8717 82.6403 18.3149C82.1472 20.761 82.217 23.3257 82.4548 25.82C82.7217 28.3222 83.2003 30.7833 83.7853 33.1785C84.9689 37.97 86.542 42.5083 88.1876 46.7459C89.8416 50.9828 91.5673 54.9312 93.2739 58.522C96.6811 65.7079 99.8335 71.5489 102.117 75.5885C104.414 79.6244 106.021 81.7436 106.021 81.7436L104.947 82.4054Z" fill="black"/>
</g>
<g id="Group_3">
<path id="Vector_4" d="M105.252 74.1349C105.252 74.1349 104.437 73.1046 103.471 71.4388C102.981 70.608 102.455 69.6129 101.947 68.5225C101.442 67.4311 100.948 66.2461 100.537 65.0327C100.31 64.4337 100.146 63.8134 99.9587 63.2124C99.7651 62.613 99.647 62.0023 99.4939 61.4234C99.3359 60.8451 99.2608 60.2682 99.1481 59.7314C99.0336 59.1944 98.9716 58.6788 98.9111 58.2039C98.7672 57.2569 98.7195 56.4607 98.6852 55.9039C98.6469 55.3478 98.6251 55.03 98.6251 55.03C98.6251 55.03 98.6586 55.3468 98.7173 55.9013C98.772 56.4559 98.8488 57.2479 99.0269 58.1863C99.1046 58.6569 99.1849 59.1671 99.3186 59.6975C99.4506 60.2276 99.5456 60.7965 99.7239 61.3656C99.8974 61.9353 100.036 62.5352 100.25 63.1227C100.458 63.7118 100.642 64.3189 100.889 64.9036C101.339 66.0884 101.87 67.2406 102.408 68.2975C102.948 69.3535 103.501 70.3128 104.012 71.1096C105.026 72.7171 105.834 73.6614 105.834 73.6614L105.252 74.1349Z" fill="black"/>
</g>
<g id="Group_4">
<path id="Vector_5" d="M108.339 72.7788C108.339 72.7788 107.94 71.7062 107.683 70.0776C107.563 69.2602 107.444 68.3033 107.421 67.2745C107.373 66.2466 107.425 65.1508 107.506 64.0612C107.572 63.519 107.637 62.9768 107.701 62.4431C107.795 61.9145 107.888 61.3944 107.977 60.891C108.207 59.8944 108.427 58.9685 108.682 58.1922C108.898 57.4054 109.159 56.7759 109.316 56.3279C109.479 55.8819 109.572 55.6271 109.572 55.6271C109.572 55.6271 109.49 55.8858 109.346 56.3385C109.208 56.7928 108.976 57.4306 108.795 58.2239C108.575 59.0068 108.395 59.9375 108.211 60.934C108.144 61.436 108.074 61.9547 108.004 62.4818C107.963 63.0112 107.922 63.5489 107.88 64.0867C107.847 65.1642 107.843 66.2417 107.933 67.2454C107.998 68.2507 108.156 69.1776 108.306 69.9642C108.467 70.7498 108.651 71.3895 108.79 71.8304C108.867 72.0448 108.926 72.2132 108.967 72.328C109.012 72.4414 109.037 72.5018 109.037 72.5018L108.339 72.7788Z" fill="black"/>
</g>
</g>
<path id="Vector_6" d="M195.013 109.075C195.013 109.075 206.542 110.083 209.661 108.607C210.214 109.629 203.29 114.487 195.318 113.63" fill="black"/>
<g id="Group_5">
<path id="Vector_7" d="M197.316 109.54C197.316 104.199 195.641 99.1002 192.62 94.4108C192.546 105.777 191.557 117.258 189.643 128.657C194.535 122.934 197.316 116.436 197.316 109.54Z" fill="url(#paint1_linear)" stroke="black" stroke-width="0.6941" stroke-miterlimit="10"/>
<path id="Vector_8" d="M169.897 76.2731C171.359 92.5836 170.665 109.504 167.743 126.245C166.609 132.74 165.142 139.143 163.379 145.419C174.533 141.464 183.671 135.644 189.643 128.657C191.557 117.258 192.546 105.777 192.62 94.4108C187.942 87.1461 180.013 80.8737 169.897 76.2731Z" fill="url(#paint2_linear)" stroke="black" stroke-width="0.6941" stroke-miterlimit="10"/>
<path id="Vector_9" d="M169.898 76.2731C163.114 73.1891 155.351 70.8629 146.949 69.4791C149.442 86.4801 149.197 104.547 146.07 122.462C144.378 132.157 141.866 141.601 138.649 150.634C147.563 149.873 155.918 148.064 163.379 145.419C165.142 139.143 166.609 132.74 167.743 126.245C170.665 109.504 171.359 92.5836 169.898 76.2731Z" fill="url(#paint3_linear)" stroke="black" stroke-width="0.6941" stroke-miterlimit="10"/>
<path id="Vector_10" d="M124.454 68.1364C127.381 84.0846 127.411 101.416 124.398 118.679C122.475 129.696 119.378 140.317 115.276 150.199C119.733 150.756 124.349 151.049 129.077 151.049C132.327 151.049 135.519 150.902 138.649 150.634C141.866 141.601 144.378 132.157 146.07 122.462C149.197 104.547 149.442 86.4801 146.949 69.4791C141.251 68.5407 135.264 68.0309 129.077 68.0309C127.521 68.0309 125.983 68.0739 124.454 68.1364Z" fill="url(#paint4_linear)" stroke="black" stroke-width="0.6941" stroke-miterlimit="10"/>
<path id="Vector_11" d="M124.454 68.1364C117.504 68.4196 110.843 69.3336 104.617 70.7887C107.301 84.65 107.37 99.9196 104.696 115.24C102.78 126.212 99.6167 136.444 95.479 145.665C101.561 147.762 108.214 149.317 115.276 150.199C119.378 140.317 122.475 129.696 124.398 118.679C127.411 101.416 127.381 84.0846 124.454 68.1364Z" fill="url(#paint5_linear)" stroke="black" stroke-width="0.6941" stroke-miterlimit="10"/>
<path id="Vector_12" d="M85.979 111.972C84.3813 121.125 81.7549 129.662 78.375 137.316C83.2822 140.629 89.0591 143.451 95.479 145.665C99.6167 136.444 102.78 126.212 104.696 115.24C107.37 99.9196 107.301 84.65 104.617 70.7887C98.0019 72.3346 91.8857 74.4879 86.4482 77.1383C88.1611 87.7653 88.1279 99.6637 85.979 111.972Z" fill="url(#paint6_linear)" stroke="black" stroke-width="0.6941" stroke-miterlimit="10"/>
<path id="Vector_13" d="M86.4482 77.1383C70.8423 84.7457 60.8389 96.4284 60.8389 109.54C60.8389 120.222 67.477 129.96 78.375 137.316C81.7549 129.662 84.3813 121.125 85.979 111.972C88.1279 99.6637 88.1611 87.7653 86.4482 77.1383Z" fill="url(#paint7_linear)" stroke="black" stroke-width="0.6941" stroke-miterlimit="10"/>
</g>
<path id="Vector_14" opacity="0.1" d="M198.148 106.178C197.349 104.359 196.329 102.599 195.119 100.879C189.979 93.6085 181.259 87.3385 170.129 82.7384C162.669 79.6588 154.139 77.3288 144.898 75.9484C138.629 75.0084 132.049 74.4987 125.239 74.4987C123.529 74.4987 121.839 74.5387 120.159 74.5988C112.519 74.8888 105.188 75.7985 98.3389 77.2584C91.0688 78.7985 84.3389 80.9586 78.3589 83.6085C77.3188 84.0685 76.2886 84.5485 75.2988 85.0387C78.8086 82.1486 82.9287 79.5587 87.5288 77.3185C92.9687 74.6686 99.0786 72.5084 105.699 70.9684C111.929 69.5084 118.589 68.5988 125.539 68.3087C127.069 68.2487 128.599 68.2086 130.159 68.2086C136.349 68.2086 142.329 68.7184 148.028 69.6588C156.429 71.0387 164.198 73.3688 170.978 76.4484C181.099 81.0485 189.019 87.3185 193.698 94.5885C196.049 98.2287 197.579 102.119 198.148 106.178Z" fill="#F6F6F6"/>
<g id="Group_6">
<path id="Vector_15" d="M48.3686 125.317C72.1697 125.317 91.4643 108.804 91.4643 88.4347C91.4643 68.0651 72.1697 51.5524 48.3686 51.5524C24.5675 51.5524 5.2729 68.0651 5.2729 88.4347C5.2729 108.804 24.5675 125.317 48.3686 125.317Z" fill="url(#paint8_radial)"/>
<path id="Vector_16" d="M5.5413 88.4188C5.5413 88.4188 5.5917 89.4002 5.6863 91.2405C5.6766 92.1729 5.9351 93.2641 6.1422 94.5705C6.2817 95.8908 6.8286 97.3311 7.3002 98.9705C7.5585 99.7842 7.9722 100.59 8.3273 101.464C8.5186 101.895 8.6939 102.346 8.9102 102.789C9.1534 103.219 9.4019 103.658 9.6556 104.106C10.1733 104.996 10.6678 105.949 11.362 106.822C11.6885 107.272 12.0209 107.729 12.359 108.194C12.5284 108.427 12.6993 108.661 12.8716 108.896C13.0666 109.114 13.2631 109.334 13.4613 109.556C16.5222 113.185 20.7241 116.667 25.9137 119.338C31.0909 122.015 37.2441 123.875 43.8901 124.429C44.7213 124.478 45.5612 124.488 46.4042 124.52C47.2371 124.525 48.1194 124.625 48.9256 124.552C49.791 124.505 50.6616 124.458 51.5373 124.41C51.9735 124.382 52.4177 124.372 52.851 124.329L54.1338 124.145C54.9903 124.023 55.8514 123.901 56.7169 123.778C57.5783 123.613 58.4386 123.387 59.3053 123.194C61.0563 122.862 62.7346 122.206 64.459 121.672C71.2104 119.164 77.7077 115.027 82.463 109.191C83.1044 108.502 83.6279 107.722 84.1586 106.946C84.6818 106.167 85.2741 105.429 85.6869 104.58C86.1306 103.751 86.6174 102.943 87.0447 102.105L88.1452 99.5024C88.3503 99.0759 88.4764 98.6214 88.6062 98.1682L89.0075 96.8123C89.1351 96.3588 89.2911 95.9119 89.3966 95.4531L89.6378 94.0591C89.7709 93.1265 90.0355 92.2095 90.0314 91.2605L90.1909 88.5095C90.0964 84.4637 89.3928 80.9825 88.0634 77.3973L86.9464 74.8112C86.5135 73.9793 86.0221 73.1778 85.5767 72.3543C85.1606 71.5117 84.5648 70.7801 84.0389 70.0073C83.5055 69.2384 82.9795 68.4654 82.3361 67.7839C77.5648 62.0051 71.0762 57.937 64.3557 55.4882C57.5697 53.0863 50.562 52.2429 43.8758 52.7516C37.3556 53.2977 31.1777 55.1316 26.0487 57.7851C20.8886 60.4306 16.7097 63.8835 13.6649 67.482C10.5973 71.0815 8.6946 74.7978 7.4831 77.9629C7.003 79.5892 6.4351 81.0115 6.2643 82.3275C6.0311 83.6269 5.7502 84.7244 5.7426 85.6412C5.6118 87.4631 5.542 88.4347 5.542 88.4347L5.5413 88.4188ZM5.004 88.4347C5.004 88.4347 5.05 87.4444 5.1362 85.5875C5.1224 84.6513 5.3778 83.5278 5.5837 82.1934C5.7274 80.8423 6.2663 79.3768 6.7199 77.6957C7.878 74.423 9.7367 70.5542 12.8032 66.7679C15.8465 62.9833 20.0663 59.3114 25.334 56.4414C30.6075 53.5665 36.8394 51.494 43.7814 50.767C50.5498 50.0992 58.0051 50.7955 65.1716 53.1736C72.2729 55.6965 79.1804 59.942 84.3463 66.0952C86.8904 69.1683 89.1411 72.6084 90.5269 76.4525C91.9393 80.2037 92.7038 84.5337 92.7377 88.3589L92.5501 91.4934C92.5398 92.5189 92.2573 93.5119 92.1029 94.5191L91.8272 96.0239C91.7094 96.5189 91.5405 97.0012 91.3992 97.49L90.9544 98.9503C90.8093 99.438 90.6671 99.9264 90.4459 100.385C89.035 104.208 86.7738 107.624 84.2206 110.667C79.0386 116.763 72.1397 120.939 65.0693 123.404C63.2645 123.923 61.5086 124.56 59.6872 124.866C58.7835 125.047 57.8933 125.258 56.9924 125.41C56.0808 125.519 55.1739 125.628 54.2718 125.735L52.924 125.895C52.4796 125.929 52.0427 125.928 51.6037 125.947C50.7272 125.975 49.8557 126.003 48.9895 126.031C48.0641 126.087 47.2253 125.966 46.3483 125.942C45.4822 125.89 44.6202 125.86 43.768 125.79C36.9517 125.071 30.695 123.024 25.4695 120.173C20.2311 117.329 16.0341 113.687 13.0068 109.933C9.9679 106.17 8.097 102.348 6.9026 99.1097C6.4405 97.4418 5.8806 95.9942 5.7056 94.6474C5.4736 93.32 5.1958 92.1902 5.1923 91.2697C5.0698 89.4311 5.0045 88.4506 5.0045 88.4506L5.004 88.4347Z" fill="black"/>
</g>
<g id="Group_7">
<path id="Vector_17" d="M12.7665 88.0817C19.8166 89.3112 26.8296 82.8666 28.4305 73.6873C30.0313 64.508 25.6138 56.07 18.5637 54.8405C11.5136 53.6109 4.50067 60.0555 2.89981 69.2348C1.29895 78.4141 5.71643 86.8521 12.7665 88.0817Z" fill="white"/>
<path id="Vector_18" d="M28.7023 73.7442C28.7023 73.7442 28.6251 74.1035 28.4804 74.7773C28.4122 75.1143 28.3245 75.5298 28.1661 76.0174C28.0164 76.5032 27.8738 77.0742 27.6208 77.674C27.197 78.9062 26.4779 80.3303 25.488 81.8507C24.4817 83.3573 23.1117 84.9361 21.2663 86.2243C21.0343 86.3827 20.7998 86.5426 20.5631 86.7042C20.3111 86.8416 20.0565 86.9803 19.7995 87.1203C19.2977 87.4253 18.7245 87.6101 18.1669 87.8494C17.0122 88.208 15.7715 88.531 14.4684 88.4794C14.1438 88.5035 13.8197 88.4616 13.4932 88.4246C13.1638 88.3758 12.8444 88.3848 12.5012 88.2867C12.1862 88.2101 11.8694 88.1331 11.5507 88.0556C11.2321 87.9691 10.9123 87.8215 10.5908 87.7049C9.3326 87.1736 8.12921 86.4418 7.12751 85.4453C5.07921 83.5035 3.6705 80.8451 2.9523 78.007C2.1924 75.1657 2.1788 72.1221 2.6482 69.1918C3.1926 66.2912 4.2412 63.4058 5.9145 60.9976C7.5502 58.5689 9.775 56.5423 12.3605 55.4066C14.9254 54.2461 17.877 54.1442 20.2881 55.0309C21.5569 55.4314 22.5982 56.1499 23.5695 56.8802C24.0134 57.2944 24.4907 57.6624 24.8596 58.1196C25.054 58.3385 25.2467 58.5553 25.4374 58.7701C25.6055 59.0024 25.772 59.2325 25.9367 59.4601C27.2372 61.2981 27.9914 63.2481 28.428 65.0068C28.8444 66.773 29.0386 68.3566 29.0199 69.6596C29.0546 70.3113 28.9956 70.8913 28.9722 71.3964C28.9568 71.9027 28.8982 72.3289 28.8475 72.6741C28.7541 73.3653 28.7043 73.7339 28.7043 73.7339L28.7023 73.7442ZM28.1775 73.6422C28.1775 73.6422 28.2258 73.2823 28.3165 72.6075C28.366 72.2705 28.4234 71.8545 28.4377 71.3606C28.46 70.8679 28.5182 70.3019 28.4835 69.6668C28.5022 68.3962 28.3106 66.8543 27.906 65.1382C27.4817 63.4297 26.7478 61.5401 25.4952 59.7724C25.3368 59.5533 25.1768 59.332 25.0152 59.1084C24.8321 58.9027 24.6471 58.695 24.4605 58.4853C24.1069 58.0455 23.6501 57.6967 23.227 57.2991C22.3105 56.6077 21.288 55.9097 20.1321 55.5475C17.7981 54.6915 15.0418 54.7937 12.5759 55.898C10.102 56.9826 7.9454 58.9369 6.3554 61.2973C4.7227 63.6548 3.7116 66.4195 3.1699 69.2829C2.7111 72.1441 2.7232 75.1144 3.4618 77.8762C4.1583 80.6361 5.5255 83.2065 7.487 85.0659C8.442 86.0198 9.60481 86.7187 10.7786 87.2155C11.0803 87.3237 11.3613 87.4604 11.6747 87.5459C11.9934 87.6233 12.3103 87.7002 12.6253 87.7766C12.9069 87.8614 13.2424 87.857 13.5451 87.9018C13.855 87.937 14.1626 87.978 14.4709 87.9537C15.7076 88.0046 16.8883 87.6932 17.991 87.3525C18.5241 87.1215 19.0722 86.9477 19.5539 86.6531C19.8006 86.5188 20.045 86.3857 20.2869 86.254C20.5147 86.0982 20.7402 85.9439 20.9634 85.7912C22.7405 84.5503 24.0701 83.0196 25.0471 81.5547C26.0081 80.076 26.7095 78.6896 27.1215 77.4873C27.3694 76.8998 27.504 76.3527 27.6492 75.8841C27.8014 75.4205 27.8895 75.0043 27.9579 74.6654C28.1023 73.9915 28.1794 73.6322 28.1794 73.6322L28.1775 73.6422Z" fill="black"/>
</g>
<g id="Group_8">
<path id="Vector_19" d="M20.7241 66.1281C20.7241 66.1281 20.0772 63.3709 19.4554 59.2003C18.8367 55.0334 18.2491 49.4201 18.4371 43.788C18.4992 42.3815 18.5889 40.9756 18.7625 39.5988C18.9318 38.2226 19.151 36.8716 19.4725 35.5871C19.7672 34.2969 20.1826 33.0812 20.6269 31.9513C20.8786 31.398 21.1249 30.8593 21.3869 30.3518C21.689 29.8647 21.9365 29.368 22.2539 28.9412C22.8615 28.0684 23.5224 27.3465 24.1618 26.7698C24.4974 26.4994 24.8115 26.2464 25.1019 26.0125C25.4216 25.8212 25.7153 25.6455 25.9806 25.4868C26.2396 25.317 26.4856 25.1948 26.7128 25.1141C26.9339 25.0222 27.1219 24.944 27.2743 24.8805C27.5787 24.7541 27.7411 24.6866 27.7411 24.6866L27.7912 24.8285C27.7912 24.8285 27.6334 24.9004 27.3375 25.0351C27.1898 25.1023 27.0076 25.1851 26.7934 25.2826C26.5734 25.3685 26.3361 25.4963 26.0878 25.6715C25.8338 25.8348 25.5526 26.0156 25.2465 26.2125C24.971 26.4499 24.673 26.7066 24.3547 26.9809C23.7507 27.5632 23.132 28.2853 22.5696 29.1524C22.275 29.5758 22.0497 30.0703 21.7718 30.551C21.5329 31.0539 21.3104 31.587 21.083 32.1326C20.686 33.2502 20.3195 34.448 20.0725 35.7214C19.7991 36.9875 19.6277 38.3203 19.5059 39.6768C19.3797 41.0336 19.3371 42.42 19.3213 43.8053C19.3182 49.3559 20.0798 54.8817 20.8257 58.9739C21.1999 61.0221 21.5687 62.7172 21.8426 63.8974C22.1178 65.0825 22.2947 65.7384 22.2947 65.7384L20.7241 66.1281Z" fill="black"/>
</g>
<g id="Group_9">
<path id="Vector_20" d="M23.8627 64.7491C23.8627 64.7491 24.0221 63.8322 24.3676 62.2788C24.7128 60.7194 25.2507 58.505 26.0202 55.8833C26.7919 53.2632 27.7772 50.2288 29.0518 47.0586C29.6951 45.4765 30.3778 43.8478 31.1638 42.2338C31.925 40.6088 32.7924 39.0022 33.6931 37.4162C34.6269 35.8483 35.5997 34.3013 36.6713 32.8557C37.201 32.1287 37.737 31.4157 38.3132 30.7462C38.8603 30.054 39.4552 29.4158 40.0439 28.7917C41.2153 27.5379 42.4677 26.4419 43.7015 25.4649C44.3262 24.9865 44.9715 24.5694 45.5748 24.1408C46.205 23.7513 46.835 23.4078 47.4279 23.0612C48.6602 22.4508 49.8101 21.9317 50.8806 21.605C51.1444 21.514 51.3997 21.4259 51.6461 21.3408C51.8996 21.2799 52.1441 21.2211 52.3789 21.1647C52.8488 21.0543 53.2805 20.9528 53.6704 20.8612C54.4572 20.7178 55.0865 20.6681 55.5098 20.6047C55.9347 20.5506 56.1614 20.5218 56.1614 20.5218L56.201 20.9871C56.201 20.9871 55.9797 21.0199 55.5647 21.0815C55.1516 21.1522 54.5376 21.2123 53.7723 21.3675C53.3937 21.4646 52.9744 21.572 52.5181 21.689C52.2904 21.7484 52.0534 21.8101 51.8076 21.8742C51.569 21.9621 51.3219 22.0531 51.0666 22.1472C50.0309 22.4851 48.9212 23.0143 47.7349 23.6306C47.1642 23.9806 46.5583 24.3261 45.9529 24.7168C45.3732 25.1473 44.7539 25.5643 44.1547 26.0423C42.9713 27.019 41.772 28.1104 40.6519 29.3586C40.0891 29.9798 39.5204 30.6138 38.9983 31.3029C38.448 31.968 37.9369 32.6772 37.432 33.3999C36.4105 34.8362 35.4858 36.3744 34.5994 37.9317C33.7453 39.5086 32.924 41.1039 32.2064 42.7191C31.4645 44.3222 30.8236 45.9412 30.2207 47.5125C29.0267 50.6614 28.1141 53.675 27.4045 56.2735C26.6971 58.8737 26.2104 61.0665 25.9022 62.6038C25.5915 64.1472 25.4587 65.016 25.4587 65.016L23.8627 64.7491Z" fill="black"/>
</g>
<path id="Vector_21" d="M13.5215 82.9127C16.5863 82.9127 19.0708 79.2359 19.0708 74.7003C19.0708 70.1647 16.5863 66.4879 13.5215 66.4879C10.4567 66.4879 7.9722 70.1647 7.9722 74.7003C7.9722 79.2359 10.4567 82.9127 13.5215 82.9127Z" fill="black" stroke="black" stroke-width="0.4745" stroke-miterlimit="10"/>
<g id="Group_10">
<g id="Group_11">
<path id="Vector_22" d="M15.4036 99.4623C15.4036 99.4623 15.8007 99.8371 16.5907 100.413C17.3742 100.987 18.529 101.772 20.0222 102.495C21.5155 103.203 23.3317 103.897 25.35 104.21C26.3553 104.383 27.4094 104.439 28.4712 104.397C29.5363 104.377 30.6017 104.171 31.6502 103.935C32.692 103.661 33.7212 103.326 34.6856 102.869C35.1685 102.643 35.6501 102.425 36.0982 102.149C36.5554 101.893 37.0063 101.639 37.4225 101.339C38.2839 100.79 39.0532 100.158 39.7823 99.5648C40.4855 98.9352 41.1566 98.3483 41.7202 97.7406C42.3067 97.1594 42.8121 96.5934 43.2803 96.1068C43.772 95.6366 44.2006 95.2267 44.5536 94.8891C45.281 94.2237 45.7955 93.906 45.7955 93.906L45.8077 93.8985C45.9469 93.8126 46.1294 93.8557 46.2153 93.9949C46.2628 94.0718 46.2704 94.1631 46.2447 94.2429C46.2447 94.2429 46.0579 94.8118 45.5581 95.698C45.3206 96.1504 44.9796 96.6619 44.5374 97.2112C44.3118 97.4817 44.0718 97.7695 43.8188 98.073C43.5541 98.3664 43.2465 98.6499 42.9415 98.9591C42.3412 99.5874 41.6221 100.202 40.8678 100.858C40.0838 101.48 39.2559 102.139 38.3214 102.719C37.8712 103.032 37.3804 103.302 36.8823 103.573C36.3951 103.862 35.8681 104.094 35.3396 104.332C34.2844 104.813 33.1516 105.169 32.004 105.452C30.8412 105.669 29.6646 105.84 28.4996 105.817C27.3382 105.816 26.1962 105.706 25.1203 105.477C22.9553 105.06 21.0639 104.228 19.5613 103.367C18.0548 102.503 16.9075 101.625 16.1517 100.96C15.3967 100.299 15.0057 99.8585 15.0057 99.8585L15.0009 99.8531C14.8979 99.7371 14.9085 99.5596 15.0245 99.4566C15.1338 99.3593 15.2989 99.3641 15.4036 99.4623Z" fill="black"/>
</g>
<g id="Group_12">
<path id="Vector_23" d="M42.0639 92.4475C42.0639 92.4475 42.5995 92.3768 43.333 92.5204C43.7022 92.5901 44.1211 92.7127 44.5588 92.8898C44.9939 93.0697 45.439 93.3181 45.8578 93.6232C46.2761 93.9258 46.6594 94.3042 46.9601 94.7115C47.2565 95.1317 47.4468 95.5913 47.5518 95.9966C47.6305 96.4219 47.6503 96.7663 47.5903 97.0191C47.5519 97.264 47.5027 97.395 47.5027 97.395C47.4404 97.561 47.2552 97.6451 47.0892 97.5827C47.0525 97.5689 47.0199 97.5492 46.9919 97.525L46.9487 97.4873C46.9487 97.4873 46.8428 97.3949 46.705 97.249C46.6259 97.1787 46.5704 97.088 46.4654 97.0002C46.3586 96.914 46.2668 96.8122 46.1639 96.7096C46.0379 96.6158 45.9319 96.5017 45.8109 96.3933C45.6802 96.288 45.5434 96.1762 45.4209 96.0522C45.1388 95.8217 44.8597 95.5561 44.5456 95.2978C43.8893 94.7478 43.233 94.1978 42.7408 93.7853C42.2207 93.3444 41.8813 92.9784 41.8813 92.9784L41.875 92.9716C41.7572 92.8446 41.7647 92.6461 41.8917 92.5283C41.9413 92.4825 42.0016 92.4556 42.0639 92.4475Z" fill="black"/>
</g>
</g>
<g id="wing1">
<path id="Vector_24" d="M110.39 79.0104C110.39 79.0104 150.197 -22.328 200.512 7.23157C250.826 36.7912 128.185 80.8165 121.895 81.4455" fill="#F6F6F6"/>
<path id="Vector_25" d="M110.346 78.9928C110.346 78.9928 110.717 78.0354 111.413 76.2404C112.129 74.4534 113.197 71.8377 114.682 68.5635C116.164 65.288 118.025 61.336 120.324 56.8815C122.611 52.4214 125.361 47.4711 128.644 42.2357C131.923 37.0013 135.713 31.4606 140.197 25.9475C144.665 20.4317 149.916 14.9773 156.185 10.294C159.309 7.94769 162.74 5.86799 166.431 4.18539C170.128 2.53129 174.13 1.31669 178.287 0.881685C180.362 0.623485 182.47 0.655787 184.571 0.768587C186.664 0.975487 188.765 1.26529 190.801 1.83759C194.902 2.88909 198.742 4.76169 202.297 6.98319C205.823 9.20389 209.254 11.9652 211.532 15.7113C212.665 17.5726 213.437 19.7144 213.631 21.9216C213.834 24.127 213.49 26.3427 212.78 28.3596C212.072 30.3846 211.047 32.2369 209.892 33.9536C208.742 35.6798 207.422 37.2471 206.043 38.7245C203.284 41.6844 200.25 44.2528 197.161 46.6079C190.953 51.2912 184.499 55.1027 178.285 58.4868C172.059 61.8559 166.031 64.7537 160.413 67.2976C154.796 69.8455 149.553 71.9607 144.89 73.784C140.224 75.6008 136.12 77.0873 132.722 78.2579C129.324 79.4291 126.622 80.2536 124.769 80.7769C123.843 81.0386 123.127 81.2188 122.639 81.3214C122.154 81.4313 121.896 81.4498 121.896 81.4498C121.894 81.45 121.892 81.4482 121.891 81.4458C121.891 81.4434 121.893 81.4413 121.895 81.441C121.895 81.441 122.151 81.4124 122.631 81.2836C123.112 81.1622 123.819 80.9541 124.733 80.6563C126.563 80.0695 129.217 79.1121 132.574 77.8474C135.93 76.5786 139.981 74.9737 144.581 73.0237C149.187 71.0881 154.32 68.7572 159.881 66.1472C165.43 63.5116 171.376 60.5175 177.495 57.0606C183.606 53.5993 189.91 49.6757 195.936 45.0114C198.948 42.6861 201.888 40.1603 204.513 37.307C207.138 34.4764 209.47 31.2563 210.735 27.6617C211.354 25.8679 211.624 23.9777 211.442 22.1277C211.266 20.2762 210.613 18.4825 209.615 16.8643C208.614 15.2455 207.323 13.7767 205.862 12.4631C205.109 11.8347 204.359 11.1738 203.556 10.6145C202.761 10.046 201.969 9.47409 201.069 8.94409C194.309 4.68919 186.325 2.28989 178.526 3.16439C174.64 3.54389 170.862 4.65769 167.332 6.20849C163.807 7.78769 160.494 9.75999 157.452 12.0132C151.344 16.504 146.19 21.8394 141.643 27.1506C137.111 32.49 133.24 37.8992 129.877 43.025C126.519 48.157 123.68 53.0207 121.226 57.3661C118.786 61.7205 116.795 65.595 115.205 68.8099C112.033 75.2456 110.435 79.0278 110.435 79.0278C110.425 79.0523 110.397 79.0641 110.373 79.0543C110.348 79.0448 110.337 79.017 110.346 78.9928Z" fill="black"/>
</g>
<g id="Group_13">
<path id="Vector_26" d="M114.197 78.9582C114.197 78.9582 126.206 69.7116 140.673 50.8439Z" fill="#F6F6F6"/>
<path id="Vector_27" d="M113.809 78.461C113.809 78.461 115.71 77.0195 118.423 74.6241C119.771 73.4204 121.337 72.0061 122.961 70.432C124.597 68.8693 126.295 67.1537 127.975 65.4186C129.644 63.673 131.28 61.8956 132.795 60.2104C134.292 58.5104 135.685 56.9184 136.843 55.522C138.022 54.1442 138.957 52.9563 139.626 52.1366C140.292 51.314 140.673 50.8439 140.673 50.8439C140.673 50.8439 140.308 51.3261 139.669 52.1699C139.027 53.011 138.13 54.2298 136.995 55.6462C135.883 57.0811 134.541 58.7195 133.097 60.4712C131.635 62.2081 130.054 64.0427 128.437 65.8479C126.809 67.6428 125.161 69.4204 123.569 71.0441C121.988 72.6788 120.459 74.1532 119.141 75.4104C116.493 77.9072 114.585 79.4554 114.585 79.4554C114.315 79.6749 113.918 79.6337 113.698 79.3632C113.478 79.0927 113.52 78.6955 113.79 78.4759C113.795 78.4722 113.805 78.4646 113.809 78.461Z" fill="black"/>
</g>
<g id="Group_14">
<path id="Vector_28" d="M118.229 79.8996C118.229 79.8996 140.469 70.6598 151.161 58.7101Z" fill="#F6F6F6"/>
<path id="Vector_29" d="M117.984 79.3184C117.984 79.3184 120.252 78.413 123.596 76.8566C125.26 76.0694 127.201 75.1447 129.24 74.0748C130.267 73.5538 131.311 72.982 132.372 72.4015C133.44 71.8341 134.489 71.194 135.558 70.5882C136.607 69.9475 137.655 69.3068 138.687 68.6761C139.693 68.0058 140.697 67.3643 141.646 66.7098C142.578 66.0338 143.498 65.4036 144.338 64.7631C145.168 64.1087 145.952 63.4899 146.676 62.9187C147.369 62.3099 148.005 61.7519 148.568 61.2573C149.147 60.7781 149.574 60.2805 149.965 59.9096C150.726 59.1464 151.161 58.7102 151.161 58.7102C151.161 58.7102 150.74 59.1601 150.004 59.9473C149.625 60.3306 149.211 60.8442 148.648 61.342C148.099 61.8559 147.48 62.4358 146.804 63.0683C146.096 63.6645 145.329 64.3104 144.518 64.9936C143.696 65.6635 142.793 66.3249 141.878 67.0344C140.947 67.7221 139.96 68.3981 138.97 69.1045C137.953 69.7713 136.92 70.4487 135.888 71.1262C134.833 71.7688 133.799 72.4467 132.744 73.051C131.696 73.6685 130.665 74.2772 129.649 74.8339C127.633 75.9755 125.711 76.9679 124.061 77.814C120.754 79.4846 118.474 80.4809 118.474 80.4809C118.155 80.622 117.783 80.4782 117.642 80.1597C117.5 79.8412 117.644 79.4686 117.963 79.3275C117.968 79.3251 117.979 79.3206 117.984 79.3184Z" fill="black"/>
</g>
<path id="Vector_30" d="M16.2359 73.5807C17.3092 73.5807 18.1792 72.4012 18.1792 70.9464C18.1792 69.4915 17.3092 68.3121 16.2359 68.3121C15.1626 68.3121 14.2926 69.4915 14.2926 70.9464C14.2926 72.4012 15.1626 73.5807 16.2359 73.5807Z" fill="white"/>
<g id="Group_15">
<path id="Vector_31" d="M29.6494 88.6534C38.6578 90.2244 47.6187 81.9903 49.6642 70.2619C51.7096 58.5336 46.0649 47.7523 37.0565 46.1812C28.0481 44.6101 19.0872 52.8443 17.0418 64.5726C14.9964 76.301 20.641 87.0823 29.6494 88.6534Z" fill="white"/>
<path id="Vector_32" d="M50.2206 70.3784C50.2206 70.3784 50.1184 70.8368 49.9267 71.6963C49.8362 72.1253 49.7202 72.6555 49.5108 73.286C49.3132 73.9118 49.1226 74.6477 48.7918 75.416C48.6381 75.8055 48.4763 76.2159 48.3065 76.6463C48.1035 77.0623 47.891 77.4976 47.6695 77.9513C47.4619 78.412 47.1948 78.8649 46.9122 79.3316C46.6295 79.7977 46.3645 80.2975 46.0094 80.763C44.7021 82.6886 42.9266 84.7007 40.5481 86.3365C40.2498 86.5384 39.9484 86.7424 39.644 86.9485C39.3201 87.1235 38.9929 87.3002 38.6626 87.4786C38.0178 87.867 37.2815 88.1018 36.5656 88.4057C36.2008 88.5412 35.8133 88.623 35.4335 88.7349C35.0522 88.8447 34.6673 88.9521 34.2643 88.9931C33.8655 89.0517 33.4636 89.1108 33.0588 89.1703C32.6494 89.1786 32.2371 89.187 31.822 89.1954C31.4061 89.2247 30.991 89.1694 30.5731 89.1205C30.151 89.0563 29.7437 89.0665 29.3026 88.9389C28.9006 88.8395 28.4961 88.7396 28.0892 88.639C27.6822 88.5267 27.2726 88.3363 26.8619 88.1856C25.2514 87.5025 23.7263 86.5521 22.439 85.287C19.8089 82.8178 17.9889 79.4243 17.0517 75.7937C16.061 72.159 16.0241 68.2585 16.6084 64.4967C16.8296 63.5415 16.9456 62.6517 17.2384 61.7191L17.6429 60.3345C17.792 59.8796 17.9751 59.4405 18.1398 58.9933C18.4463 58.0897 18.9048 57.2516 19.2963 56.3876C19.5187 55.9687 19.7644 55.5625 19.9972 55.1504C20.2231 54.7337 20.4728 54.3325 20.7518 53.9504C22.8391 50.8138 25.6913 48.1807 29.0355 46.6889C32.3459 45.1631 36.2137 45.0105 39.3428 46.1431C39.7481 46.297 40.1507 46.4499 40.5504 46.6017C40.9186 46.7977 41.2841 46.9922 41.6469 47.1853C42.0196 47.3637 42.3522 47.5982 42.6803 47.8342C43.0063 48.0716 43.3498 48.2838 43.6531 48.5385C44.2328 49.0774 44.852 49.5616 45.3318 50.1564C45.5842 50.4419 45.8342 50.7247 46.0818 51.0047C46.2998 51.307 46.5156 51.6064 46.7292 51.9026C48.4131 54.2946 49.3864 56.821 49.9428 59.0976C50.112 59.662 50.1848 60.227 50.2856 60.7658C50.3861 61.305 50.4769 61.8254 50.5091 62.3323C50.5567 62.837 50.6023 63.3212 50.646 63.7838C50.6533 64.248 50.6602 64.6906 50.6668 65.1107C50.7055 65.9513 50.6248 66.6984 50.5902 67.3491C50.5658 68.0013 50.4867 68.5497 50.4184 68.9938C50.2921 69.8828 50.2247 70.357 50.2247 70.357L50.2206 70.3784ZM49.1268 70.1657C49.1268 70.1657 49.1848 69.709 49.2935 68.8527C49.3533 68.4252 49.4223 67.8976 49.4358 67.2717C49.4595 66.6473 49.5285 65.9302 49.4785 65.1267C49.4667 64.7252 49.4543 64.3021 49.4413 63.8585C49.3931 63.4177 49.3427 62.9565 49.2901 62.4757C49.2535 61.9926 49.1591 61.4987 49.0559 60.9876C48.9524 60.477 48.8775 59.9403 48.708 59.4087C48.1644 57.2552 47.2362 54.8756 45.6581 52.6605C45.4589 52.386 45.2576 52.1086 45.0542 51.8284C44.8241 51.5713 44.5918 51.3116 44.3572 51.0495C43.9138 50.4981 43.3397 50.0663 42.8115 49.5681C42.5371 49.3313 42.2259 49.1377 41.9316 48.9166C41.6355 48.6971 41.3354 48.4778 40.9987 48.3146C40.6716 48.1347 40.342 47.9534 40.0101 47.7708C39.6674 47.6356 39.3222 47.4994 38.9747 47.3623C36.041 46.268 32.6156 46.376 29.498 47.744C26.3775 49.0892 23.6314 51.5424 21.5971 54.5249C21.325 54.887 21.081 55.2688 20.8599 55.6668C20.632 56.06 20.3906 56.4469 20.1718 56.8471C19.7865 57.6743 19.3333 58.4753 19.0306 59.3451C18.308 61.0335 17.8824 62.8278 17.4958 64.6517C16.8943 68.2899 16.8904 72.0735 17.8145 75.598C18.685 79.1202 20.4119 82.4075 22.9053 84.7952C24.1183 86.0223 25.6165 86.9 27.1133 87.5305C27.4989 87.667 27.857 87.8397 28.2575 87.9474C28.6651 88.0447 29.0704 88.1413 29.4733 88.2375C29.8304 88.3438 30.26 88.3367 30.6455 88.3923C31.0406 88.4356 31.4328 88.4864 31.8256 88.4538C32.2174 88.4431 32.6066 88.4325 32.993 88.4219C33.3752 88.3621 33.7546 88.3028 34.1312 88.244C34.5114 88.2038 34.8752 88.098 35.2356 87.9905C35.5946 87.8809 35.9605 87.8025 36.3056 87.6708C36.9832 87.3738 37.6797 87.1503 38.2916 86.7726C38.6049 86.6005 38.9152 86.4299 39.2225 86.2611C39.5117 86.0616 39.7979 85.8641 40.0813 85.6686C42.3315 84.0729 44.0053 82.1119 45.2324 80.241C45.5669 79.7897 45.8135 79.3028 46.0783 78.8505C46.343 78.3977 46.5932 77.9588 46.7854 77.5112C46.9916 77.0715 47.1895 76.6496 47.3785 76.2466C47.5351 75.8295 47.6844 75.4319 47.8261 75.0545C48.1352 74.3056 48.2992 73.6131 48.4783 73.0194C48.6658 72.4345 48.7744 71.9019 48.8585 71.4674C49.0364 70.6049 49.1312 70.145 49.1312 70.145L49.1268 70.1657Z" fill="black"/>
</g>
<path id="Vector_33" d="M32.4561 82.7575C36.0831 82.7575 39.0234 78.4065 39.0234 73.0392C39.0234 67.6719 36.0831 63.3209 32.4561 63.3209C28.8291 63.3209 25.8888 67.6719 25.8888 73.0392C25.8888 78.4065 28.8291 82.7575 32.4561 82.7575Z" fill="black" stroke="black" stroke-width="0.5615" stroke-miterlimit="10"/>
<path id="Vector_34" d="M36.6507 72.0031C38.3376 72.0031 39.7052 70.1495 39.7052 67.8629C39.7052 65.5763 38.3376 63.7227 36.6507 63.7227C34.9637 63.7227 33.5962 65.5763 33.5962 67.8629C33.5962 70.1495 34.9637 72.0031 36.6507 72.0031Z" fill="white"/>
<g id="Vector_35">
<path d="M87.5752 125.322C87.5752 125.322 77.8613 142.855 64.7104 142.855C63.1269 142.181 61.5508 141.551 59.791 141.743C58.2412 141.912 58.292 143.244 59.6348 143.792C58.1933 143.601 55.4741 144.118 57.0278 147.067C58.2056 149.302 64.8315 145.899 64.8315 145.899C64.8315 145.899 81.917 144.353 90.271 126.504" fill="url(#paint9_linear)"/>
<path d="M87.5752 125.322C87.5752 125.322 77.8613 142.855 64.7104 142.855C63.1269 142.181 61.5508 141.551 59.791 141.743C58.2412 141.912 58.292 143.244 59.6348 143.792C58.1933 143.601 55.4741 144.118 57.0278 147.067C58.2056 149.302 64.8315 145.899 64.8315 145.899C64.8315 145.899 81.917 144.353 90.271 126.504" stroke="black" stroke-width="0.6941" stroke-miterlimit="10"/>
</g>
<g id="Group_16">
<path id="Vector_36" d="M52.7195 26.008C55.6207 26.008 57.9726 23.7737 57.9726 21.0177C57.9726 18.2616 55.6207 16.0274 52.7195 16.0274C49.8183 16.0274 47.4664 18.2616 47.4664 21.0177C47.4664 23.7737 49.8183 26.008 52.7195 26.008Z" fill="#F29400"/>
<path id="Vector_37" d="M58.3297 21.0367C58.3297 21.0367 58.3219 21.1622 58.3071 21.3974C58.2921 21.6213 58.237 22.0417 58.0995 22.479C57.8368 23.3693 57.1367 24.6314 55.7487 25.4607C55.0661 25.8723 54.2376 26.1762 53.3305 26.2712C53.0994 26.2867 52.8832 26.3017 52.63 26.2979C52.4059 26.2822 52.1929 26.2868 51.9433 26.2412C51.4511 26.1861 50.9931 26.0394 50.5275 25.8613C49.614 25.4745 48.76 24.8482 48.1395 23.998C47.5211 23.1421 47.1626 22.1085 47.1544 21.001C47.158 20.5219 47.2398 19.9353 47.3961 19.4354C47.5669 18.9282 47.8091 18.45 48.1092 18.0154C48.7234 17.1532 49.5749 16.5002 50.5014 16.1101C51.4239 15.7268 52.4386 15.5996 53.3224 15.6854C54.2742 15.7827 55.0939 16.0832 55.7925 16.5046C57.1899 17.3635 57.8806 18.6481 58.1256 19.5489C58.2566 20.0048 58.3001 20.378 58.3139 20.6299C58.3247 20.883 58.3304 21.018 58.3304 21.018L58.3297 21.0367ZM57.615 21.0177C57.615 21.0177 57.6074 20.9016 57.5931 20.684C57.5773 20.4676 57.533 20.1486 57.4131 19.7612C57.1824 18.9993 56.5896 17.9046 55.3782 17.172C54.7945 16.8024 54.0452 16.5257 53.2773 16.4328C52.4438 16.3405 51.5974 16.4429 50.7702 16.7641C49.9531 17.0938 49.1972 17.6552 48.6473 18.4019C48.3805 18.7794 48.1638 19.1945 48.008 19.6355C47.8667 20.0936 47.7942 20.507 47.7784 21.0343C47.7859 21.4717 47.8539 21.9635 47.9899 22.4057C48.1403 22.8505 48.3526 23.2712 48.6164 23.6554C49.1599 24.414 49.9134 25.002 50.7437 25.3349C51.1575 25.4892 51.5923 25.6222 52.0044 25.6629C52.2019 25.7021 52.44 25.698 52.6581 25.711C52.8475 25.7112 53.0698 25.6963 53.2688 25.681C54.0814 25.5859 54.822 25.313 55.4218 24.9337C56.6428 24.1718 57.2263 23.0545 57.4391 22.2821C57.5525 21.876 57.5851 21.6042 57.5997 21.3599C57.61 21.1244 57.6154 20.9988 57.6154 20.9988L57.615 21.0177Z" fill="black"/>
</g>
<g id="Group_17">
<path id="Vector_38" d="M27.5496 27.4479C29.3996 27.4479 30.8994 26.1624 30.8994 24.5768C30.8994 22.9911 29.3996 21.7057 27.5496 21.7057C25.6996 21.7057 24.1998 22.9911 24.1998 24.5768C24.1998 26.1624 25.6996 27.4479 27.5496 27.4479Z" fill="#F29400"/>
<path id="Vector_39" d="M24.4657 24.5611C24.4657 24.5611 24.4699 24.6374 24.4777 24.7805C24.4891 24.9251 24.5151 25.0762 24.5898 25.3151C24.7421 25.7607 25.1411 26.3939 25.9078 26.7863C26.2831 26.9838 26.7324 27.1235 27.2205 27.1676C27.3391 27.1721 27.4755 27.181 27.5841 27.1792C27.7146 27.1698 27.8654 27.1736 27.9804 27.1508C28.2221 27.1269 28.4857 27.0577 28.7344 26.9744C29.2309 26.7926 29.7077 26.4912 30.0544 26.069C30.4081 25.6605 30.6088 25.1013 30.6117 24.5933C30.6002 24.0014 30.399 23.5214 30.0417 23.0941C29.6918 22.6799 29.2208 22.379 28.7269 22.1987C28.2234 22.0258 27.7196 21.9656 27.2101 22.0076C26.7488 22.0499 26.2851 22.1899 25.9176 22.3858C25.1587 22.7776 24.7518 23.3958 24.5968 23.8409C24.5212 24.0677 24.489 24.2537 24.4792 24.381C24.4708 24.5087 24.4664 24.5768 24.4664 24.5768L24.4657 24.5611ZM23.9333 24.5768C23.9333 24.5768 23.9378 24.4923 23.9463 24.3339C23.9576 24.1762 23.9945 23.9441 24.0866 23.6627C24.2723 23.1077 24.7682 22.3578 25.6541 21.8917C26.0954 21.6568 26.5968 21.4924 27.1826 21.4353C27.7195 21.3853 28.3408 21.4453 28.9224 21.6447C29.5034 21.8517 30.0737 22.1987 30.4958 22.7135C30.9236 23.2002 31.1902 23.9248 31.1871 24.5594C31.1822 25.2779 30.9151 25.9234 30.4838 26.429C30.0585 26.9359 29.4942 27.2824 28.9158 27.4881C28.6207 27.5837 28.3353 27.6575 28.027 27.6862C27.8694 27.7106 27.7456 27.7038 27.6072 27.7126C27.4465 27.7143 27.3166 27.7028 27.173 27.6958C26.614 27.6407 26.098 27.476 25.6646 27.2428C24.7864 26.7777 24.2823 26.0429 24.0937 25.4885C24.0006 25.2191 23.9574 24.9522 23.9477 24.8118C23.9386 24.6688 23.9338 24.5925 23.9338 24.5925L23.9333 24.5768Z" fill="black"/>
</g>
</g>
<defs>
<linearGradient id="paint0_linear" x1="58.0096" y1="128.047" x2="76.9829" y2="128.047" gradientUnits="userSpaceOnUse">
<stop stop-color="#FFEE27"/>
<stop offset="0.1425" stop-color="#FFE612"/>
<stop offset="0.4575" stop-color="#FFD600"/>
<stop offset="0.7511" stop-color="#FECC00"/>
<stop offset="1" stop-color="#FDC800"/>
</linearGradient>
<linearGradient id="paint1_linear" x1="193.48" y1="94.4108" x2="193.48" y2="128.657" gradientUnits="userSpaceOnUse">
<stop stop-color="#3E3D40"/>
<stop offset="1"/>
</linearGradient>
<linearGradient id="paint2_linear" x1="177.999" y1="76.2731" x2="177.999" y2="145.419" gradientUnits="userSpaceOnUse">
<stop stop-color="#FFEE27"/>
<stop offset="0.1425" stop-color="#FFE612"/>
<stop offset="0.4575" stop-color="#FFD600"/>
<stop offset="0.7511" stop-color="#FECC00"/>
<stop offset="1" stop-color="#FDC800"/>
</linearGradient>
<linearGradient id="paint3_linear" x1="154.644" y1="69.4791" x2="154.644" y2="150.634" gradientUnits="userSpaceOnUse">
<stop stop-color="#3E3D40"/>
<stop offset="1"/>
</linearGradient>
<linearGradient id="paint4_linear" x1="131.957" y1="68.0309" x2="131.957" y2="151.049" gradientUnits="userSpaceOnUse">
<stop stop-color="#FFEE27"/>
<stop offset="0.1425" stop-color="#FFE612"/>
<stop offset="0.4575" stop-color="#FFD600"/>
<stop offset="0.7511" stop-color="#FECC00"/>
<stop offset="1" stop-color="#FDC800"/>
</linearGradient>
<linearGradient id="paint5_linear" x1="111.066" y1="68.1364" x2="111.066" y2="150.199" gradientUnits="userSpaceOnUse">
<stop stop-color="#3E3D40"/>
<stop offset="1"/>
</linearGradient>
<linearGradient id="paint6_linear" x1="92.5205" y1="70.7887" x2="92.5205" y2="145.665" gradientUnits="userSpaceOnUse">
<stop stop-color="#FFEE27"/>
<stop offset="0.1425" stop-color="#FFE612"/>
<stop offset="0.4575" stop-color="#FFD600"/>
<stop offset="0.7511" stop-color="#FECC00"/>
<stop offset="1" stop-color="#FDC800"/>
</linearGradient>
<linearGradient id="paint7_linear" x1="74.2534" y1="77.1383" x2="74.2534" y2="137.316" gradientUnits="userSpaceOnUse">
<stop stop-color="#3E3D40"/>
<stop offset="1"/>
</linearGradient>
<radialGradient id="paint8_radial" cx="0" cy="0" r="1" gradientUnits="userSpaceOnUse" gradientTransform="translate(38.1346 80.6193) scale(37.578)">
<stop stop-color="#FFEE27"/>
<stop offset="0.1317" stop-color="#FFE91C"/>
<stop offset="1" stop-color="#FDC800"/>
</radialGradient>
<linearGradient id="paint9_linear" x1="56.5629" y1="136.575" x2="90.271" y2="136.575" gradientUnits="userSpaceOnUse">
<stop stop-color="#FFEE27"/>
<stop offset="0.1425" stop-color="#FFE612"/>
<stop offset="0.4575" stop-color="#FFD600"/>
<stop offset="0.7511" stop-color="#FECC00"/>
<stop offset="1" stop-color="#FDC800"/>
</linearGradient>
</defs>
</svg>
