<svg width="214" height="151" viewBox="0 0 214 151" fill="none" xmlns="http://www.w3.org/2000/svg">
<g id="Group">
<g id="Vector">
<path d="M136.706 124.351C136.706 124.351 142.34 130.672 150.577 130.672C151.568 131.074 152.555 131.45 153.658 131.336C154.628 131.235 154.596 130.44 153.755 130.113C154.658 130.226 156.361 129.919 155.388 128.158C154.65 126.824 150.501 128.855 150.501 128.855C150.501 128.855 146.139 129.972 137.937 123.368" fill="url(#paint0_linear)"/>
<path d="M136.706 124.351C136.706 124.351 142.34 130.672 150.577 130.672C151.568 131.074 152.555 131.45 153.658 131.336C154.628 131.235 154.596 130.44 153.755 130.113C154.658 130.226 156.361 129.919 155.388 128.158C154.65 126.824 150.501 128.855 150.501 128.855C150.501 128.855 146.139 129.972 137.937 123.368" stroke="black" stroke-width="0.4243" stroke-miterlimit="10"/>
</g>
<g id="wing2">
<g id="Group_2">
<path id="Vector_2" d="M108.205 81.3901C108.205 81.3901 155.803 4.4423 116.932 8.4086C78.0607 12.3744 106.618 43.3124 93.9264 75.8373" fill="#F6F6F6"/>
<path id="Vector_3" d="M108.742 81.7211C108.742 81.7211 109.049 81.1276 109.626 80.0147C110.216 78.9132 111.089 77.3056 112.232 75.2788C114.528 71.2318 117.774 65.4254 121.261 58.2426C122.998 54.6488 124.825 50.7251 126.563 46.4856C128.295 42.2459 129.979 37.6999 131.252 32.8357C131.885 30.404 132.415 27.8923 132.731 25.3014C133.013 22.7129 133.148 20.0254 132.638 17.3268C132.379 15.986 131.989 14.6358 131.324 13.3813C130.665 12.1288 129.749 10.9789 128.622 10.0832C127.497 9.18519 126.191 8.53498 124.84 8.12378C123.483 7.74248 122.096 7.51398 120.716 7.46348C120.025 7.41538 119.341 7.45629 118.653 7.45049C117.965 7.50519 117.307 7.53149 116.594 7.61129C115.273 7.79869 113.975 7.90459 112.643 8.18769C109.966 8.66679 107.376 9.41498 104.891 10.4726C102.435 11.5794 100.138 13.1709 98.4609 15.2916C96.7584 17.4003 95.8422 19.9798 95.4174 22.486C94.9908 25.0097 94.9885 27.5043 95.0971 29.9146C95.206 32.329 95.4774 34.666 95.7355 36.9369C96.2765 41.4747 96.8587 45.7467 97.152 49.7168C97.4303 53.686 97.4484 57.3419 97.2243 60.5686C96.9708 63.7916 96.5669 66.5901 96.0393 68.8538C95.5358 71.1222 94.893 72.8449 94.296 73.9455C93.7304 75.0599 93.3388 75.6082 93.3388 75.6082L94.5138 76.0667C94.5138 76.0667 94.5634 75.3624 94.8251 74.1285C94.9611 73.5165 95.1287 72.7617 95.3258 71.8743C95.4929 70.9823 95.828 69.9985 96.0503 68.8565C96.6061 66.5987 97.0452 63.8034 97.3391 60.5774C97.6095 57.3475 97.618 53.6837 97.4146 49.701C97.2493 45.7145 96.8038 41.4115 96.4107 36.8688C96.2252 34.5977 96.0333 32.2639 96.008 29.8859C95.9806 27.512 96.0706 25.0806 96.5568 22.7032C97.0307 20.3279 97.9957 18.0371 99.5397 16.159C101.081 14.2764 103.184 12.8566 105.502 11.8557C107.845 10.9045 110.355 10.2213 112.895 9.80979C113.518 9.67369 114.183 9.60698 114.84 9.52578L116.812 9.26568C117.416 9.19698 118.087 9.16568 118.721 9.11278C119.36 9.11878 120.006 9.07639 120.64 9.12039C121.917 9.16269 123.165 9.37219 124.363 9.70179C125.55 10.0607 126.655 10.6151 127.599 11.3631C129.514 12.8518 130.61 15.1874 131.049 17.6306C131.542 20.0767 131.472 22.6414 131.234 25.1357C130.967 27.6379 130.489 30.099 129.904 32.4942C128.72 37.2857 127.147 41.824 125.501 46.0616C123.847 50.2985 122.122 54.2469 120.415 57.8377C117.008 65.0236 113.856 70.8646 111.572 74.9042C109.275 78.9401 107.668 81.0593 107.668 81.0593L108.742 81.7211Z" fill="black"/>
</g>
<g id="Group_3">
<path id="Vector_4" d="M108.437 73.4506C108.437 73.4506 109.252 72.4203 110.218 70.7545C110.708 69.9237 111.234 68.9286 111.742 67.8382C112.247 66.7468 112.741 65.5618 113.152 64.3484C113.379 63.7494 113.543 63.1291 113.73 62.5281C113.924 61.9287 114.042 61.318 114.195 60.7391C114.353 60.1608 114.428 59.5839 114.541 59.0471C114.655 58.5101 114.717 57.9945 114.778 57.5196C114.922 56.5726 114.97 55.7764 115.004 55.2196C115.042 54.6635 115.064 54.3457 115.064 54.3457C115.064 54.3457 115.03 54.6625 114.972 55.217C114.917 55.7716 114.84 56.5636 114.662 57.502C114.584 57.9726 114.504 58.4828 114.37 59.0132C114.238 59.5433 114.143 60.1122 113.965 60.6813C113.792 61.251 113.653 61.8509 113.439 62.4384C113.231 63.0275 113.047 63.6346 112.8 64.2193C112.35 65.4041 111.819 66.5563 111.281 67.6132C110.741 68.6692 110.188 69.6285 109.678 70.4253C108.664 72.0328 107.855 72.9771 107.855 72.9771L108.437 73.4506Z" fill="black"/>
</g>
<g id="Group_4">
<path id="Vector_5" d="M105.35 72.0945C105.35 72.0945 105.749 71.0219 106.006 69.3933C106.126 68.5759 106.245 67.619 106.268 66.5902C106.316 65.5623 106.264 64.4665 106.183 63.3769C106.117 62.8347 106.052 62.2925 105.988 61.7588C105.894 61.2302 105.801 60.7101 105.712 60.2067C105.482 59.2101 105.262 58.2842 105.007 57.5079C104.791 56.7211 104.53 56.0916 104.373 55.6436C104.21 55.1976 104.117 54.9428 104.117 54.9428C104.117 54.9428 104.199 55.2015 104.343 55.6542C104.481 56.1085 104.713 56.7463 104.894 57.5396C105.114 58.3225 105.294 59.2532 105.478 60.2497C105.545 60.7517 105.615 61.2704 105.685 61.7975C105.726 62.3269 105.767 62.8646 105.809 63.4024C105.842 64.4799 105.846 65.5574 105.756 66.5611C105.691 67.5664 105.533 68.4933 105.383 69.2799C105.222 70.0655 105.038 70.7052 104.899 71.1461C104.822 71.3605 104.763 71.5289 104.722 71.6437C104.677 71.7571 104.652 71.8175 104.652 71.8175L105.35 72.0945Z" fill="black"/>
</g>
</g>
<path id="Vector_6" d="M18.6764 108.391C18.6764 108.391 7.14705 109.398 4.02795 107.923C3.47515 108.945 10.3991 113.803 18.3708 112.946" fill="black"/>
<g id="Group_5">
<path id="Vector_7" d="M16.3727 108.855C16.3727 103.515 18.0485 98.4158 21.069 93.7264C21.1432 105.093 22.1325 116.574 24.0456 127.973C19.154 122.25 16.3727 115.752 16.3727 108.855Z" fill="url(#paint1_linear)" stroke="black" stroke-width="0.6941" stroke-miterlimit="10"/>
<path id="Vector_8" d="M43.7916 75.5887C42.3297 91.8992 43.0241 108.819 45.9459 125.56C47.0797 132.056 48.5475 138.459 50.3102 144.734C39.1559 140.78 30.0182 134.96 24.0456 127.973C22.1325 116.574 21.1432 105.093 21.069 93.7264C25.7467 86.4617 33.6764 80.1893 43.7916 75.5887Z" fill="url(#paint2_linear)" stroke="black" stroke-width="0.6941" stroke-miterlimit="10"/>
<path id="Vector_9" d="M43.7916 75.5887C50.5749 72.5047 58.3385 70.1785 66.7399 68.7947C64.2467 85.7957 64.4918 103.863 67.6188 121.778C69.3112 131.473 71.8229 140.917 75.0397 149.95C66.1266 149.188 57.7711 147.38 50.3102 144.734C48.5475 138.459 47.0797 132.056 45.9459 125.56C43.0241 108.819 42.3297 91.8992 43.7916 75.5887Z" fill="url(#paint3_linear)" stroke="black" stroke-width="0.6941" stroke-miterlimit="10"/>
<path id="Vector_10" d="M89.2349 67.4521C86.3082 83.4003 86.2779 100.731 89.2911 117.995C91.2144 129.012 94.3111 139.633 98.4131 149.515C93.9556 150.072 89.3404 150.365 84.6119 150.365C81.3619 150.365 78.1695 150.218 75.0396 149.95C71.8228 140.917 69.3111 131.473 67.6187 121.778C64.4917 103.863 64.2466 85.7958 66.7398 68.7948C72.438 67.8564 78.4253 67.3466 84.6119 67.3466C86.1675 67.3466 87.7056 67.3896 89.2349 67.4521Z" fill="url(#paint4_linear)" stroke="black" stroke-width="0.6941" stroke-miterlimit="10"/>
<path id="Vector_11" d="M89.235 67.452C96.1847 67.7352 102.846 68.6492 109.072 70.1043C106.388 83.9656 106.319 99.2352 108.993 114.556C110.909 125.527 114.072 135.76 118.21 144.98C112.129 147.078 105.475 148.633 98.4132 149.515C94.3112 139.633 91.2145 129.012 89.2912 117.995C86.278 100.731 86.3083 83.4002 89.235 67.452Z" fill="url(#paint5_linear)" stroke="black" stroke-width="0.6941" stroke-miterlimit="10"/>
<path id="Vector_12" d="M127.71 111.288C129.308 120.44 131.934 128.977 135.314 136.632C130.407 139.944 124.63 142.766 118.21 144.98C114.072 135.76 110.909 125.527 108.993 114.556C106.319 99.2353 106.388 83.9657 109.072 70.1044C115.687 71.6503 121.803 73.8036 127.241 76.454C125.528 87.081 125.561 98.9794 127.71 111.288Z" fill="url(#paint6_linear)" stroke="black" stroke-width="0.6941" stroke-miterlimit="10"/>
<path id="Vector_13" d="M127.241 76.454C142.847 84.0614 152.85 95.7441 152.85 108.855C152.85 119.538 146.212 129.275 135.314 136.632C131.934 128.977 129.308 120.44 127.71 111.288C125.561 98.9794 125.528 87.081 127.241 76.454Z" fill="url(#paint7_linear)" stroke="black" stroke-width="0.6941" stroke-miterlimit="10"/>
</g>
<path id="Vector_14" opacity="0.1" d="M15.5406 105.494C16.3404 103.675 17.3599 101.914 18.5699 100.194C23.7105 92.9242 32.4303 86.6542 43.5602 82.0541C51.0202 78.9745 59.5503 76.6445 68.7906 75.2641C75.0601 74.3241 81.6403 73.8144 88.4503 73.8144C90.1603 73.8144 91.8501 73.8544 93.5303 73.9145C101.171 74.2045 108.501 75.1142 115.35 76.5741C122.62 78.1142 129.35 80.2743 135.33 82.9242C136.37 83.3842 137.4 83.8642 138.39 84.3544C134.88 81.4643 130.76 78.8744 126.16 76.6342C120.72 73.9843 114.61 71.8241 107.99 70.2841C101.76 68.8241 95.1002 67.9145 88.1505 67.6244C86.6203 67.5644 85.0904 67.5243 83.5303 67.5243C77.3404 67.5243 71.36 68.0341 65.6608 68.9745C57.2604 70.3544 49.4909 72.6845 42.7106 75.7641C32.5905 80.3642 24.6705 86.6342 19.9908 93.9042C17.6402 97.5444 16.1099 101.434 15.5406 105.494Z" fill="#F6F6F6"/>
<g id="Group_6">
<path id="Vector_15" d="M165.32 124.633C141.519 124.633 122.225 108.12 122.225 87.7503C122.225 67.3808 141.519 50.868 165.32 50.868C189.122 50.868 208.416 67.3808 208.416 87.7503C208.416 108.12 189.122 124.633 165.32 124.633Z" fill="url(#paint8_radial)"/>
<path id="Vector_16" d="M208.148 87.7344C208.148 87.7344 208.097 88.7158 208.003 90.5561C208.012 91.4885 207.754 92.5797 207.547 93.8861C207.407 95.2064 206.86 96.6467 206.389 98.2861C206.131 99.0998 205.717 99.9058 205.362 100.779C205.17 101.211 204.995 101.662 204.779 102.105C204.536 102.534 204.287 102.973 204.033 103.421C203.516 104.311 203.021 105.265 202.327 106.138C202.001 106.587 201.668 107.045 201.33 107.51C201.161 107.742 200.99 107.976 200.817 108.212C200.622 108.43 200.426 108.65 200.228 108.872C197.167 112.501 192.965 115.983 187.775 118.654C182.598 121.331 176.445 123.19 169.799 123.744C168.968 123.794 168.128 123.803 167.285 123.836C166.452 123.84 165.57 123.94 164.763 123.868C163.898 123.821 163.027 123.774 162.152 123.726C161.716 123.698 161.271 123.688 160.838 123.645L159.555 123.461C158.699 123.339 157.838 123.216 156.972 123.093C156.111 122.928 155.25 122.703 154.384 122.51C152.633 122.178 150.954 121.522 149.23 120.987C142.479 118.48 135.981 114.343 131.226 108.506C130.585 107.818 130.061 107.038 129.53 106.262C129.007 105.482 128.415 104.744 128.002 103.895C127.558 103.067 127.072 102.259 126.644 101.421L125.544 98.818C125.339 98.3915 125.213 97.937 125.083 97.4838L124.682 96.1279C124.554 95.6744 124.398 95.2275 124.292 94.7687L124.051 93.3747C123.918 92.4421 123.654 91.5251 123.658 90.5761L123.498 87.8251C123.593 83.7793 124.296 80.2981 125.626 76.7129L126.743 74.1268C127.176 73.2949 127.667 72.4934 128.112 71.6699C128.528 70.8273 129.124 70.0957 129.65 69.3229C130.184 68.554 130.71 67.781 131.353 67.0995C136.124 61.3207 142.613 57.2526 149.333 54.8038C156.119 52.4019 163.127 51.5585 169.813 52.0672C176.333 52.6133 182.511 54.4472 187.64 57.1007C192.8 59.7462 196.979 63.1991 200.024 66.7976C203.092 70.3971 204.994 74.1134 206.206 77.2785C206.686 78.9048 207.254 80.3271 207.425 81.6431C207.658 82.9425 207.939 84.04 207.946 84.9568C208.077 86.7787 208.147 87.7503 208.147 87.7503L208.148 87.7344ZM208.685 87.7503C208.685 87.7503 208.639 86.76 208.553 84.9031C208.567 83.9669 208.311 82.8434 208.105 81.509C207.962 80.1579 207.423 78.6924 206.969 77.0113C205.811 73.7386 203.952 69.8698 200.886 66.0835C197.843 62.2989 193.623 58.627 188.355 55.757C183.082 52.8821 176.85 50.8096 169.908 50.0826C163.139 49.4148 155.684 50.1111 148.517 52.4892C141.416 55.0121 134.509 59.2576 129.343 65.4108C126.799 68.4839 124.548 71.924 123.162 75.7681C121.75 79.5193 120.985 83.8493 120.951 87.6745L121.139 90.809C121.149 91.8345 121.432 92.8275 121.586 93.8347L121.862 95.3395C121.98 95.8345 122.149 96.3168 122.29 96.8056L122.735 98.2659C122.88 98.7536 123.022 99.242 123.243 99.7005C124.654 103.523 126.915 106.939 129.468 109.983C134.65 116.079 141.549 120.255 148.62 122.719C150.425 123.239 152.18 123.875 154.002 124.182C154.906 124.363 155.796 124.574 156.697 124.726C157.608 124.835 158.515 124.943 159.417 125.051L160.765 125.21C161.209 125.244 161.646 125.244 162.085 125.263C162.962 125.291 163.833 125.319 164.7 125.347C165.625 125.403 166.464 125.281 167.341 125.258C168.207 125.206 169.069 125.176 169.921 125.106C176.737 124.386 182.994 122.34 188.22 119.489C193.458 116.645 197.655 113.003 200.682 109.248C203.721 105.486 205.592 101.664 206.786 98.4253C207.249 96.7574 207.808 95.3098 207.983 93.963C208.215 92.6356 208.493 91.5058 208.497 90.5853C208.619 88.7467 208.685 87.7663 208.685 87.7663L208.685 87.7503Z" fill="black"/>
</g>
<g id="Group_7">
<path id="Vector_17" d="M200.923 87.3973C193.872 88.6269 186.859 82.1823 185.259 73.003C183.658 63.8237 188.075 55.3857 195.125 54.1561C202.175 52.9266 209.188 59.3712 210.789 68.5505C212.39 77.7298 207.973 86.1678 200.923 87.3973Z" fill="white"/>
<path id="Vector_18" d="M184.987 73.0598C184.987 73.0598 185.064 73.4191 185.209 74.0929C185.277 74.4299 185.365 74.8454 185.523 75.333C185.673 75.8188 185.815 76.3898 186.068 76.9896C186.492 78.2218 187.211 79.6459 188.201 81.1663C189.207 82.6729 190.577 84.2517 192.423 85.5399C192.655 85.6983 192.889 85.8582 193.126 86.0198C193.378 86.1572 193.633 86.2959 193.89 86.4359C194.391 86.7409 194.965 86.9257 195.522 87.165C196.677 87.5236 197.918 87.8466 199.221 87.795C199.545 87.8191 199.869 87.7772 200.196 87.7402C200.525 87.6914 200.845 87.7004 201.188 87.6023C201.503 87.5257 201.82 87.4487 202.138 87.3712C202.457 87.2847 202.777 87.1371 203.098 87.0205C204.356 86.4892 205.56 85.7574 206.562 84.7609C208.61 82.8191 210.019 80.1607 210.737 77.3226C211.497 74.4813 211.51 71.4377 211.041 68.5074C210.496 65.6068 209.448 62.7214 207.775 60.3132C206.139 57.8845 203.914 55.8579 201.329 54.7222C198.764 53.5617 195.812 53.4598 193.401 54.3465C192.132 54.747 191.091 55.4655 190.12 56.1958C189.676 56.61 189.198 56.978 188.829 57.4352C188.635 57.6541 188.442 57.8709 188.252 58.0857C188.084 58.318 187.917 58.5481 187.752 58.7757C186.452 60.6137 185.698 62.5637 185.261 64.3224C184.845 66.0886 184.65 67.6722 184.669 68.9752C184.634 69.6269 184.693 70.2069 184.717 70.712C184.732 71.2183 184.791 71.6445 184.842 71.9897C184.935 72.6809 184.985 73.0495 184.985 73.0495L184.987 73.0598ZM185.512 72.9578C185.512 72.9578 185.463 72.5979 185.373 71.9231C185.323 71.5861 185.266 71.1701 185.251 70.6762C185.229 70.1835 185.171 69.6175 185.206 68.9824C185.187 67.7118 185.378 66.1699 185.783 64.4538C186.207 62.7453 186.941 60.8557 188.194 59.088C188.352 58.8689 188.512 58.6476 188.674 58.424C188.857 58.2183 189.042 58.0106 189.229 57.8009C189.582 57.3611 190.039 57.0123 190.462 56.6147C191.379 55.9233 192.401 55.2253 193.557 54.8631C195.891 54.0071 198.647 54.1093 201.113 55.2136C203.587 56.2982 205.744 58.2525 207.334 60.6129C208.966 62.9704 209.977 65.7351 210.519 68.5985C210.978 71.4597 210.966 74.43 210.227 77.1918C209.531 79.9517 208.164 82.5221 206.202 84.3815C205.247 85.3354 204.084 86.0343 202.91 86.5311C202.609 86.6393 202.328 86.776 202.014 86.8615C201.696 86.9389 201.379 87.0158 201.064 87.0922C200.782 87.177 200.447 87.1726 200.144 87.2174C199.834 87.2526 199.526 87.2936 199.218 87.2693C197.981 87.3202 196.801 87.0088 195.698 86.6681C195.165 86.4371 194.617 86.2633 194.135 85.9687C193.888 85.8344 193.644 85.7013 193.402 85.5696C193.174 85.4138 192.949 85.2595 192.726 85.1068C190.949 83.8659 189.619 82.3352 188.642 80.8703C187.681 79.3916 186.98 78.0052 186.568 76.8029C186.32 76.2154 186.185 75.6683 186.04 75.1997C185.888 74.7361 185.8 74.3199 185.731 73.981C185.587 73.3071 185.51 72.9478 185.51 72.9478L185.512 72.9578Z" fill="black"/>
</g>
<g id="Group_8">
<path id="Vector_19" d="M192.965 65.4438C192.965 65.4438 193.612 62.6866 194.234 58.516C194.852 54.3491 195.44 48.7358 195.252 43.1037C195.19 41.6972 195.1 40.2913 194.927 38.9145C194.757 37.5383 194.538 36.1873 194.217 34.9028C193.922 33.6126 193.506 32.3969 193.062 31.267C192.81 30.7137 192.564 30.175 192.302 29.6675C192 29.1804 191.753 28.6837 191.435 28.2569C190.828 27.3841 190.167 26.6622 189.527 26.0855C189.192 25.8151 188.878 25.5621 188.587 25.3282C188.267 25.1369 187.974 24.9612 187.708 24.8025C187.449 24.6327 187.203 24.5105 186.976 24.4298C186.755 24.3379 186.567 24.2597 186.415 24.1962C186.11 24.0698 185.948 24.0023 185.948 24.0023L185.898 24.1442C185.898 24.1442 186.056 24.2161 186.352 24.3508C186.499 24.418 186.681 24.5008 186.896 24.5983C187.116 24.6842 187.353 24.812 187.601 24.9872C187.855 25.1505 188.136 25.3313 188.443 25.5282C188.718 25.7656 189.016 26.0223 189.334 26.2966C189.938 26.8789 190.557 27.601 191.119 28.4681C191.414 28.8915 191.639 29.386 191.917 29.8667C192.156 30.3696 192.379 30.9027 192.606 31.4483C193.003 32.5659 193.37 33.7637 193.617 35.0371C193.89 36.3032 194.061 37.636 194.183 38.9925C194.309 40.3493 194.352 41.7357 194.368 43.121C194.371 48.6716 193.609 54.1974 192.863 58.2896C192.489 60.3378 192.12 62.0329 191.846 63.2131C191.571 64.3982 191.394 65.0541 191.394 65.0541L192.965 65.4438Z" fill="black"/>
</g>
<g id="Group_9">
<path id="Vector_20" d="M189.826 64.0648C189.826 64.0648 189.667 63.1479 189.321 61.5945C188.976 60.0351 188.438 57.8207 187.669 55.199C186.897 52.5789 185.912 49.5445 184.637 46.3743C183.994 44.7922 183.311 43.1635 182.525 41.5495C181.764 39.9245 180.897 38.3179 179.996 36.7319C179.062 35.164 178.089 33.617 177.018 32.1714C176.488 31.4444 175.952 30.7314 175.376 30.0619C174.829 29.3697 174.234 28.7315 173.645 28.1074C172.474 26.8536 171.221 25.7576 169.988 24.7806C169.363 24.3022 168.718 23.8851 168.114 23.4565C167.484 23.067 166.854 22.7235 166.261 22.3769C165.029 21.7665 163.879 21.2474 162.808 20.9207C162.545 20.8297 162.289 20.7416 162.043 20.6565C161.789 20.5956 161.545 20.5368 161.31 20.4804C160.84 20.37 160.409 20.2685 160.019 20.1769C159.232 20.0335 158.603 19.9838 158.179 19.9204C157.754 19.8663 157.528 19.8375 157.528 19.8375L157.488 20.3028C157.488 20.3028 157.709 20.3356 158.124 20.3972C158.537 20.4679 159.151 20.528 159.917 20.6832C160.295 20.7803 160.715 20.8877 161.171 21.0047C161.399 21.0641 161.636 21.1258 161.881 21.1899C162.12 21.2778 162.367 21.3688 162.622 21.4629C163.658 21.8008 164.768 22.33 165.954 22.9463C166.525 23.2963 167.131 23.6418 167.736 24.0325C168.316 24.463 168.935 24.88 169.534 25.358C170.718 26.3347 171.917 27.4261 173.037 28.6743C173.6 29.2955 174.169 29.9295 174.691 30.6186C175.241 31.2837 175.752 31.9929 176.257 32.7156C177.279 34.1519 178.203 35.6901 179.09 37.2474C179.944 38.8243 180.765 40.4196 181.483 42.0348C182.225 43.6379 182.865 45.2569 183.468 46.8282C184.662 49.9771 185.575 52.9907 186.285 55.5892C186.992 58.1894 187.479 60.3822 187.787 61.9195C188.098 63.4629 188.23 64.3317 188.23 64.3317L189.826 64.0648Z" fill="black"/>
</g>
<path id="Vector_21" d="M200.168 82.2284C197.103 82.2284 194.618 78.5516 194.618 74.016C194.618 69.4804 197.103 65.8036 200.168 65.8036C203.232 65.8036 205.717 69.4804 205.717 74.016C205.717 78.5516 203.232 82.2284 200.168 82.2284Z" fill="black" stroke="black" stroke-width="0.4745" stroke-miterlimit="10"/>
<g id="Group_10">
<g id="Group_11">
<path id="Vector_22" d="M198.285 98.7779C198.285 98.7779 197.888 99.1527 197.098 99.7289C196.315 100.303 195.16 101.088 193.667 101.811C192.174 102.519 190.357 103.213 188.339 103.526C187.334 103.699 186.28 103.755 185.218 103.712C184.153 103.693 183.087 103.487 182.039 103.251C180.997 102.977 179.968 102.642 179.003 102.185C178.521 101.959 178.039 101.741 177.591 101.465C177.134 101.208 176.683 100.955 176.267 100.655C175.405 100.106 174.636 99.4737 173.907 98.8804C173.204 98.2508 172.532 97.6639 171.969 97.0562C171.382 96.475 170.877 95.909 170.409 95.4224C169.917 94.9522 169.488 94.5423 169.135 94.2047C168.408 93.5393 167.894 93.2216 167.894 93.2216L167.881 93.2141C167.742 93.1282 167.56 93.1713 167.474 93.3105C167.426 93.3874 167.419 93.4787 167.444 93.5585C167.444 93.5585 167.631 94.1274 168.131 95.0136C168.368 95.466 168.709 95.9775 169.152 96.5268C169.377 96.7973 169.617 97.0851 169.87 97.3886C170.135 97.682 170.443 97.9655 170.748 98.2747C171.348 98.903 172.067 99.5181 172.821 100.173C173.605 100.796 174.433 101.455 175.368 102.035C175.818 102.348 176.309 102.618 176.807 102.888C177.294 103.177 177.821 103.41 178.349 103.648C179.405 104.129 180.537 104.484 181.685 104.767C182.848 104.985 184.024 105.156 185.189 105.132C186.351 105.132 187.493 105.022 188.569 104.792C190.734 104.375 192.625 103.544 194.128 102.683C195.634 101.818 196.782 100.941 197.537 100.275C198.292 99.6145 198.683 99.1741 198.683 99.1741L198.688 99.1687C198.791 99.0527 198.781 98.8752 198.665 98.7722C198.555 98.6749 198.39 98.6797 198.285 98.7779Z" fill="black"/>
</g>
<g id="Group_12">
<path id="Vector_23" d="M171.625 91.7631C171.625 91.7631 171.09 91.6924 170.356 91.836C169.987 91.9057 169.568 92.0283 169.13 92.2054C168.695 92.3853 168.25 92.6337 167.831 92.9388C167.413 93.2414 167.03 93.6198 166.729 94.0271C166.433 94.4473 166.242 94.9069 166.137 95.3122C166.059 95.7375 166.039 96.0819 166.099 96.3347C166.137 96.5796 166.186 96.7106 166.186 96.7106C166.249 96.8766 166.434 96.9607 166.6 96.8983C166.637 96.8845 166.669 96.8648 166.697 96.8406L166.74 96.8029C166.74 96.8029 166.846 96.7105 166.984 96.5646C167.063 96.4943 167.119 96.4036 167.224 96.3158C167.33 96.2296 167.422 96.1278 167.525 96.0252C167.651 95.9314 167.757 95.8173 167.878 95.7089C168.009 95.6036 168.146 95.4918 168.268 95.3678C168.55 95.1373 168.829 94.8717 169.143 94.6134C169.8 94.0634 170.456 93.5134 170.948 93.1009C171.468 92.66 171.808 92.294 171.808 92.294L171.814 92.2872C171.932 92.1602 171.924 91.9617 171.797 91.8439C171.748 91.7981 171.687 91.7712 171.625 91.7631Z" fill="black"/>
</g>
</g>
<g id="wing1">
<path id="Vector_24" d="M103.299 78.3261C103.299 78.3261 63.4918 -23.0124 13.1774 6.54725C-37.1371 36.1068 85.5045 80.1321 91.7936 80.7611" fill="#F6F6F6"/>
<path id="Vector_25" d="M103.343 78.3085C103.343 78.3085 102.972 77.3511 102.276 75.5561C101.56 73.7691 100.492 71.1534 99.0068 67.8792C97.5251 64.6037 95.6637 60.6517 93.3651 56.1972C91.078 51.7371 88.3277 46.7868 85.0454 41.5514C81.7657 36.317 77.9759 30.7763 73.4917 25.2632C69.0238 19.7474 63.7727 14.293 57.5045 9.60966C54.38 7.26336 50.949 5.18366 47.2581 3.50106C43.5612 1.84696 39.5587 0.632359 35.4019 0.197359C33.327 -0.0608408 31.2189 -0.0285389 29.1183 0.0842611C27.0253 0.291161 24.9241 0.580961 22.8885 1.15326C18.7874 2.20476 14.9468 4.07736 11.3918 6.29886C7.86585 8.51956 4.43496 11.2809 2.15686 15.027C1.02406 16.8883 0.25177 19.0301 0.0577698 21.2373C-0.14543 23.4427 0.199254 25.6584 0.909454 27.6753C1.61705 29.7003 2.64186 31.5526 3.79706 33.2693C4.94686 34.9955 6.26744 36.5628 7.64584 38.0402C10.4047 41.0001 13.4392 43.5685 16.5283 45.9236C22.7358 50.6069 29.1901 54.4184 35.4037 57.8025C41.6303 61.1716 47.6581 64.0694 53.2759 66.6133C58.8928 69.1612 64.1359 71.2764 68.7987 73.0997C73.4649 74.9165 77.569 76.403 80.9669 77.5736C84.3647 78.7448 87.067 79.5693 88.9199 80.0926C89.8464 80.3543 90.5626 80.5345 91.0497 80.6371C91.5353 80.747 91.793 80.7655 91.793 80.7655C91.7954 80.7657 91.7975 80.7639 91.7978 80.7615C91.798 80.7591 91.7962 80.757 91.7939 80.7567C91.7939 80.7567 91.5384 80.7281 91.0585 80.5993C90.5774 80.4779 89.8702 80.2698 88.9563 79.972C87.1257 79.3852 84.4725 78.4278 81.115 77.1631C77.7589 75.8943 73.7076 74.2894 69.1076 72.3394C64.5016 70.4038 59.3693 68.0729 53.808 65.4629C48.2592 62.8273 42.3128 59.8332 36.1937 56.3763C30.0832 52.915 23.7787 48.9914 17.7531 44.3271C14.7411 42.0018 11.8006 39.476 9.17566 36.6227C6.55106 33.7921 4.21945 30.572 2.95435 26.9774C2.33525 25.1836 2.06547 23.2934 2.24677 21.4434C2.42277 19.5919 3.07566 17.7982 4.07376 16.18C5.07456 14.5612 6.36655 13.0924 7.82745 11.7788C8.58055 11.1504 9.33017 10.4895 10.1333 9.93016C10.928 9.36166 11.72 8.78976 12.6204 8.25976C19.3799 4.00486 27.3645 1.60556 35.1634 2.48006C39.0491 2.85956 42.8268 3.97336 46.3572 5.52416C49.8818 7.10336 53.1954 9.07566 56.2368 11.3289C62.3452 15.8197 67.4993 21.1551 72.0461 26.4663C76.5785 31.8057 80.4491 37.2149 83.8118 42.3407C87.1704 47.4727 90.0086 52.3364 92.4629 56.6818C94.9035 61.0362 96.8945 64.9107 98.4845 68.1256C101.656 74.5613 103.254 78.3435 103.254 78.3435C103.264 78.368 103.292 78.3798 103.316 78.37C103.341 78.3605 103.352 78.3327 103.343 78.3085Z" fill="black"/>
</g>
<g id="Group_13">
<path id="Vector_26" d="M99.4918 78.2738C99.4918 78.2738 87.4826 69.0272 73.0163 50.1595Z" fill="#F6F6F6"/>
<path id="Vector_27" d="M99.8796 77.7766C99.8796 77.7766 97.9789 76.3351 95.2657 73.9397C93.9184 72.736 92.3523 71.3218 90.7277 69.7477C89.0922 68.185 87.3937 66.4693 85.7139 64.7342C84.045 62.9886 82.4087 61.2112 80.8941 59.526C79.3966 57.826 78.0035 56.234 76.8464 54.8376C75.6666 53.4598 74.7319 52.2719 74.0625 51.4522C73.3966 50.6296 73.0161 50.1595 73.0161 50.1595C73.0161 50.1595 73.3811 50.6417 74.0198 51.4855C74.6621 52.3266 75.5585 53.5454 76.6935 54.9618C77.8058 56.3967 79.1476 58.0351 80.5921 59.7868C82.0537 61.5237 83.6353 63.3583 85.252 65.1635C86.8796 66.9584 88.5284 68.736 90.1204 70.3597C91.7011 71.9944 93.2302 73.4688 94.5484 74.726C97.1963 77.2228 99.1037 78.771 99.1037 78.771C99.3742 78.9905 99.7714 78.9493 99.991 78.6788C100.211 78.4083 100.169 78.0111 99.8988 77.7915C99.8941 77.7878 99.8844 77.7802 99.8796 77.7766Z" fill="black"/>
</g>
<g id="Group_14">
<path id="Vector_28" d="M95.4601 79.2153C95.4601 79.2153 73.2204 69.9755 62.528 58.0258Z" fill="#F6F6F6"/>
<path id="Vector_29" d="M95.7048 78.6341C95.7048 78.6341 93.4369 77.7287 90.0935 76.1723C88.4293 75.3851 86.4883 74.4604 84.449 73.3905C83.4217 72.8695 82.3784 72.2977 81.3174 71.7172C80.2487 71.1498 79.2003 70.5097 78.1308 69.9039C77.0824 69.2632 76.0339 68.6225 75.0019 67.9918C73.9959 67.3215 72.9917 66.68 72.0436 66.0255C71.1115 65.3495 70.191 64.7193 69.3512 64.0788C68.5215 63.4244 67.7371 62.8056 67.0131 62.2344C66.3199 61.6256 65.6845 61.0676 65.1213 60.573C64.5423 60.0938 64.1147 59.5962 63.7241 59.2253C62.9629 58.4621 62.528 58.0259 62.528 58.0259C62.528 58.0259 62.9488 58.4758 63.6852 59.263C64.0638 59.6463 64.4777 60.1599 65.0413 60.6577C65.5901 61.1716 66.2092 61.7515 66.8847 62.384C67.5927 62.9802 68.3597 63.6261 69.171 64.3093C69.9934 64.9792 70.8959 65.6406 71.8114 66.3501C72.7424 67.0378 73.7293 67.7138 74.7196 68.4202C75.7362 69.087 76.7689 69.7644 77.8016 70.4419C78.8557 71.0845 79.8906 71.7624 80.9456 72.3667C81.9932 72.9842 83.0242 73.5929 84.0399 74.1496C86.0564 75.2912 87.9784 76.2836 89.6286 77.1297C92.9353 78.8003 95.2154 79.7966 95.2154 79.7966C95.5339 79.9377 95.9065 79.7939 96.0476 79.4754C96.1887 79.1569 96.045 78.7843 95.7265 78.6432C95.7211 78.6408 95.7102 78.6363 95.7048 78.6341Z" fill="black"/>
</g>
<path id="Vector_30" d="M197.453 72.8963C196.38 72.8963 195.51 71.7169 195.51 70.262C195.51 68.8072 196.38 67.6277 197.453 67.6277C198.526 67.6277 199.396 68.8072 199.396 70.262C199.396 71.7169 198.526 72.8963 197.453 72.8963Z" fill="white"/>
<g id="Group_15">
<path id="Vector_31" d="M184.04 87.9691C175.031 89.5401 166.07 81.306 164.025 69.5776C161.979 57.8492 167.624 47.0679 176.633 45.4969C185.641 43.9258 194.602 52.1599 196.647 63.8883C198.693 75.6167 193.048 86.398 184.04 87.9691Z" fill="white"/>
<path id="Vector_32" d="M163.468 69.6941C163.468 69.6941 163.571 70.1525 163.762 71.012C163.853 71.441 163.969 71.9712 164.178 72.6017C164.376 73.2275 164.566 73.9634 164.897 74.7317C165.051 75.1212 165.213 75.5316 165.383 75.962C165.586 76.378 165.798 76.8132 166.02 77.2669C166.227 77.7276 166.494 78.1806 166.777 78.6473C167.06 79.1134 167.325 79.6132 167.68 80.0787C168.987 82.0043 170.762 84.0164 173.141 85.6522C173.439 85.8541 173.741 86.0581 174.045 86.2642C174.369 86.4392 174.696 86.6159 175.026 86.7943C175.671 87.1827 176.408 87.4175 177.123 87.7214C177.488 87.8569 177.876 87.9386 178.256 88.0505C178.637 88.1603 179.022 88.2678 179.425 88.3088C179.824 88.3674 180.225 88.4265 180.63 88.486C181.04 88.4943 181.452 88.5027 181.867 88.5111C182.283 88.5404 182.698 88.4851 183.116 88.4362C183.538 88.372 183.945 88.3822 184.386 88.2546C184.788 88.1552 185.193 88.0553 185.6 87.9547C186.007 87.8424 186.416 87.6519 186.827 87.5012C188.438 86.8181 189.963 85.8678 191.25 84.6027C193.88 82.1335 195.7 78.74 196.637 75.1094C197.628 71.4747 197.665 67.5742 197.081 63.8124C196.859 62.8572 196.743 61.9674 196.451 61.0348L196.046 59.6502C195.897 59.1953 195.714 58.7562 195.549 58.309C195.243 57.4054 194.784 56.5673 194.393 55.7033C194.17 55.2844 193.925 54.8782 193.692 54.4661C193.466 54.0494 193.216 53.6481 192.937 53.266C190.85 50.1294 187.998 47.4964 184.654 46.0046C181.343 44.4788 177.475 44.3262 174.346 45.4588C173.941 45.6127 173.538 45.7656 173.139 45.9174C172.77 46.1134 172.405 46.3079 172.042 46.501C171.669 46.6794 171.337 46.9139 171.009 47.1499C170.683 47.3873 170.339 47.5995 170.036 47.8542C169.456 48.3931 168.837 48.8773 168.357 49.4721C168.105 49.7576 167.855 50.0404 167.607 50.3204C167.389 50.6227 167.173 50.9221 166.96 51.2183C165.276 53.6103 164.303 56.1367 163.746 58.4133C163.577 58.9777 163.504 59.5426 163.403 60.0814C163.303 60.6206 163.212 61.1411 163.18 61.648C163.132 62.1527 163.087 62.6369 163.043 63.0995C163.036 63.5637 163.029 64.0063 163.022 64.4264C162.984 65.267 163.064 66.0141 163.099 66.6648C163.123 67.317 163.202 67.8654 163.271 68.3095C163.397 69.1985 163.464 69.6727 163.464 69.6727L163.468 69.6941ZM164.562 69.4814C164.562 69.4814 164.504 69.0247 164.396 68.1684C164.336 67.7409 164.267 67.2133 164.253 66.5874C164.23 65.963 164.161 65.2459 164.211 64.4424C164.222 64.0409 164.235 63.6178 164.248 63.1742C164.296 62.7334 164.346 62.2721 164.399 61.7913C164.436 61.3082 164.53 60.8144 164.633 60.3033C164.737 59.7927 164.812 59.256 164.981 58.7244C165.525 56.5709 166.453 54.1913 168.031 51.9762C168.23 51.7017 168.431 51.4243 168.635 51.1441C168.865 50.887 169.097 50.6273 169.332 50.3652C169.775 49.8138 170.349 49.382 170.878 48.8838C171.152 48.647 171.463 48.4534 171.757 48.2323C172.054 48.0128 172.354 47.7935 172.69 47.6303C173.017 47.4504 173.347 47.2691 173.679 47.0865C174.022 46.9513 174.367 46.8151 174.714 46.678C177.648 45.5837 181.073 45.6917 184.191 47.0597C187.312 48.4049 190.058 50.8581 192.092 53.8406C192.364 54.2027 192.608 54.5844 192.829 54.9824C193.057 55.3756 193.298 55.7626 193.517 56.1628C193.903 56.99 194.356 57.7909 194.658 58.6607C195.381 60.3491 195.807 62.1435 196.193 63.9674C196.795 67.6056 196.799 71.3892 195.875 74.9137C195.004 78.4359 193.277 81.7232 190.784 84.1109C189.571 85.338 188.073 86.2157 186.576 86.8462C186.19 86.9827 185.832 87.1554 185.432 87.2631C185.024 87.3604 184.619 87.457 184.216 87.5532C183.859 87.6595 183.429 87.6524 183.044 87.708C182.648 87.7513 182.256 87.8021 181.863 87.7695C181.472 87.7588 181.082 87.7482 180.696 87.7376C180.314 87.6778 179.934 87.6185 179.558 87.5597C179.178 87.5195 178.814 87.4136 178.453 87.3061C178.094 87.1965 177.729 87.1182 177.383 86.9865C176.706 86.6895 176.009 86.466 175.397 86.0883C175.084 85.9162 174.774 85.7455 174.467 85.5767C174.177 85.3772 173.891 85.1797 173.608 84.9842C171.358 83.3885 169.684 81.4276 168.457 79.5567C168.122 79.1054 167.876 78.6184 167.611 78.1661C167.346 77.7133 167.096 77.2745 166.904 76.8269C166.697 76.3872 166.5 75.9653 166.311 75.5623C166.154 75.1452 166.005 74.7476 165.863 74.3702C165.554 73.6213 165.39 72.9288 165.211 72.3351C165.023 71.7502 164.915 71.2176 164.831 70.7831C164.653 69.9206 164.558 69.4607 164.558 69.4607L164.562 69.4814Z" fill="black"/>
</g>
<path id="Vector_33" d="M181.233 82.0732C177.606 82.0732 174.666 77.7222 174.666 72.3549C174.666 66.9876 177.606 62.6366 181.233 62.6366C184.86 62.6366 187.8 66.9876 187.8 72.3549C187.8 77.7222 184.86 82.0732 181.233 82.0732Z" fill="black" stroke="black" stroke-width="0.5615" stroke-miterlimit="10"/>
<path id="Vector_34" d="M177.038 71.3187C175.351 71.3187 173.984 69.4651 173.984 67.1785C173.984 64.892 175.351 63.0383 177.038 63.0383C178.725 63.0383 180.093 64.892 180.093 67.1785C180.093 69.4651 178.725 71.3187 177.038 71.3187Z" fill="white"/>
<g id="Vector_35">
<path d="M126.114 124.638C126.114 124.638 135.828 142.171 148.979 142.171C150.562 141.497 152.138 140.867 153.898 141.058C155.448 141.227 155.397 142.559 154.054 143.107C155.496 142.917 158.215 143.433 156.661 146.383C155.483 148.618 148.858 145.215 148.858 145.215C148.858 145.215 131.772 143.669 123.418 125.819" fill="url(#paint9_linear)"/>
<path d="M126.114 124.638C126.114 124.638 135.828 142.171 148.979 142.171C150.562 141.497 152.138 140.867 153.898 141.058C155.448 141.227 155.397 142.559 154.054 143.107C155.496 142.917 158.215 143.433 156.661 146.383C155.483 148.618 148.858 145.215 148.858 145.215C148.858 145.215 131.772 143.669 123.418 125.819" stroke="black" stroke-width="0.6941" stroke-miterlimit="10"/>
</g>
<g id="Group_16">
<path id="Vector_36" d="M160.97 25.3236C158.068 25.3236 155.716 23.0894 155.716 20.3333C155.716 17.5773 158.068 15.343 160.97 15.343C163.871 15.343 166.223 17.5773 166.223 20.3333C166.223 23.0894 163.871 25.3236 160.97 25.3236Z" fill="#F29400"/>
<path id="Vector_37" d="M155.359 20.3523C155.359 20.3523 155.367 20.4778 155.382 20.713C155.397 20.9369 155.452 21.3573 155.59 21.7946C155.852 22.6849 156.552 23.947 157.94 24.7763C158.623 25.1879 159.451 25.4918 160.359 25.5868C160.59 25.6023 160.806 25.6173 161.059 25.6135C161.283 25.5978 161.496 25.6024 161.746 25.5568C162.238 25.5017 162.696 25.355 163.162 25.1769C164.075 24.7901 164.929 24.1638 165.55 23.3136C166.168 22.4577 166.526 21.4241 166.535 20.3166C166.531 19.8375 166.449 19.2509 166.293 18.751C166.122 18.2438 165.88 17.7656 165.58 17.331C164.966 16.4688 164.114 15.8158 163.188 15.4257C162.265 15.0424 161.25 14.9152 160.367 15.001C159.415 15.0983 158.595 15.3988 157.897 15.8202C156.499 16.6791 155.808 17.9637 155.563 18.8645C155.432 19.3204 155.389 19.6936 155.375 19.9455C155.364 20.1986 155.359 20.3336 155.359 20.3336L155.359 20.3523ZM156.074 20.3333C156.074 20.3333 156.082 20.2172 156.096 19.9996C156.112 19.7832 156.156 19.4642 156.276 19.0768C156.507 18.3149 157.099 17.2202 158.311 16.4876C158.895 16.118 159.644 15.8413 160.412 15.7484C161.245 15.6561 162.092 15.7585 162.919 16.0797C163.736 16.4094 164.492 16.9708 165.042 17.7175C165.309 18.095 165.525 18.5101 165.681 18.9511C165.822 19.4092 165.895 19.8226 165.911 20.3499C165.903 20.7873 165.835 21.2791 165.699 21.7213C165.549 22.1661 165.336 22.5868 165.073 22.971C164.529 23.7296 163.776 24.3176 162.945 24.6505C162.532 24.8048 162.097 24.9378 161.685 24.9785C161.487 25.0177 161.249 25.0136 161.031 25.0266C160.842 25.0268 160.619 25.0119 160.42 24.9966C159.608 24.9015 158.867 24.6286 158.267 24.2493C157.046 23.4874 156.463 22.3701 156.25 21.5977C156.137 21.1916 156.104 20.9198 156.089 20.6755C156.079 20.44 156.074 20.3144 156.074 20.3144L156.074 20.3333Z" fill="black"/>
</g>
<g id="Group_17">
<path id="Vector_38" d="M186.139 26.7636C184.289 26.7636 182.79 25.4781 182.79 23.8925C182.79 22.3068 184.289 21.0214 186.139 21.0214C187.989 21.0214 189.489 22.3068 189.489 23.8925C189.489 25.4781 187.989 26.7636 186.139 26.7636Z" fill="#F29400"/>
<path id="Vector_39" d="M189.223 23.8768C189.223 23.8768 189.219 23.9531 189.211 24.0962C189.2 24.2408 189.174 24.3919 189.099 24.6308C188.947 25.0764 188.548 25.7096 187.781 26.102C187.406 26.2995 186.957 26.4392 186.469 26.4833C186.35 26.4878 186.214 26.4967 186.105 26.4949C185.974 26.4855 185.824 26.4893 185.709 26.4665C185.467 26.4426 185.203 26.3734 184.955 26.2901C184.458 26.1083 183.981 25.8069 183.635 25.3847C183.281 24.9762 183.08 24.417 183.077 23.909C183.089 23.3171 183.29 22.8371 183.647 22.4098C183.997 21.9956 184.468 21.6947 184.962 21.5144C185.466 21.3415 185.969 21.2813 186.479 21.3233C186.94 21.3656 187.404 21.5056 187.771 21.7015C188.53 22.0933 188.937 22.7115 189.092 23.1566C189.168 23.3834 189.2 23.5694 189.21 23.6967C189.218 23.8244 189.223 23.8925 189.223 23.8925L189.223 23.8768ZM189.756 23.8925C189.756 23.8925 189.751 23.808 189.743 23.6496C189.731 23.4919 189.695 23.2598 189.602 22.9784C189.417 22.4234 188.921 21.6735 188.035 21.2074C187.594 20.9725 187.092 20.8081 186.506 20.751C185.97 20.701 185.348 20.761 184.767 20.9604C184.186 21.1674 183.615 21.5144 183.193 22.0292C182.765 22.5159 182.499 23.2405 182.502 23.8751C182.507 24.5936 182.774 25.2391 183.205 25.7447C183.631 26.2516 184.195 26.5981 184.773 26.8038C185.068 26.8994 185.354 26.9732 185.662 27.0019C185.82 27.0263 185.943 27.0195 186.082 27.0283C186.243 27.03 186.372 27.0185 186.516 27.0115C187.075 26.9564 187.591 26.7917 188.024 26.5585C188.903 26.0934 189.407 25.3586 189.595 24.8042C189.688 24.5348 189.732 24.2679 189.741 24.1275C189.75 23.9845 189.755 23.9082 189.755 23.9082L189.756 23.8925Z" fill="black"/>
</g>
</g>
<defs>
<linearGradient id="paint0_linear" x1="155.679" y1="127.362" x2="136.706" y2="127.362" gradientUnits="userSpaceOnUse">
<stop stop-color="#FFEE27"/>
<stop offset="0.1425" stop-color="#FFE612"/>
<stop offset="0.4575" stop-color="#FFD600"/>
<stop offset="0.7511" stop-color="#FECC00"/>
<stop offset="1" stop-color="#FDC800"/>
</linearGradient>
<linearGradient id="paint1_linear" x1="20.2092" y1="93.7264" x2="20.2092" y2="127.973" gradientUnits="userSpaceOnUse">
<stop stop-color="#3E3D40"/>
<stop offset="1"/>
</linearGradient>
<linearGradient id="paint2_linear" x1="35.6896" y1="75.5887" x2="35.6896" y2="144.734" gradientUnits="userSpaceOnUse">
<stop stop-color="#FFEE27"/>
<stop offset="0.1425" stop-color="#FFE612"/>
<stop offset="0.4575" stop-color="#FFD600"/>
<stop offset="0.7511" stop-color="#FECC00"/>
<stop offset="1" stop-color="#FDC800"/>
</linearGradient>
<linearGradient id="paint3_linear" x1="59.0454" y1="68.7947" x2="59.0454" y2="149.95" gradientUnits="userSpaceOnUse">
<stop stop-color="#3E3D40"/>
<stop offset="1"/>
</linearGradient>
<linearGradient id="paint4_linear" x1="81.7318" y1="67.3466" x2="81.7318" y2="150.365" gradientUnits="userSpaceOnUse">
<stop stop-color="#FFEE27"/>
<stop offset="0.1425" stop-color="#FFE612"/>
<stop offset="0.4575" stop-color="#FFD600"/>
<stop offset="0.7511" stop-color="#FECC00"/>
<stop offset="1" stop-color="#FDC800"/>
</linearGradient>
<linearGradient id="paint5_linear" x1="102.623" y1="67.452" x2="102.623" y2="149.515" gradientUnits="userSpaceOnUse">
<stop stop-color="#3E3D40"/>
<stop offset="1"/>
</linearGradient>
<linearGradient id="paint6_linear" x1="121.169" y1="70.1044" x2="121.169" y2="144.98" gradientUnits="userSpaceOnUse">
<stop stop-color="#FFEE27"/>
<stop offset="0.1425" stop-color="#FFE612"/>
<stop offset="0.4575" stop-color="#FFD600"/>
<stop offset="0.7511" stop-color="#FECC00"/>
<stop offset="1" stop-color="#FDC800"/>
</linearGradient>
<linearGradient id="paint7_linear" x1="139.436" y1="76.454" x2="139.436" y2="136.632" gradientUnits="userSpaceOnUse">
<stop stop-color="#3E3D40"/>
<stop offset="1"/>
</linearGradient>
<radialGradient id="paint8_radial" cx="0" cy="0" r="1" gradientUnits="userSpaceOnUse" gradientTransform="translate(175.554 79.9349) rotate(180) scale(37.578)">
<stop stop-color="#FFEE27"/>
<stop offset="0.1317" stop-color="#FFE91C"/>
<stop offset="1" stop-color="#FDC800"/>
</radialGradient>
<linearGradient id="paint9_linear" x1="157.126" y1="135.89" x2="123.418" y2="135.89" gradientUnits="userSpaceOnUse">
<stop stop-color="#FFEE27"/>
<stop offset="0.1425" stop-color="#FFE612"/>
<stop offset="0.4575" stop-color="#FFD600"/>
<stop offset="0.7511" stop-color="#FECC00"/>
<stop offset="1" stop-color="#FDC800"/>
</linearGradient>
</defs>
</svg>
