<svg width="481" height="480" viewBox="0 0 481 480" fill="none" xmlns="http://www.w3.org/2000/svg">
<g id="leaves" clip-path="url(#clip0)">
<path id="Vector" d="M474.672 232.453L408.117 209.164C381.559 199.867 352.371 201.73 327.207 214.324C302.047 226.922 283.062 249.172 274.59 276.004L257.176 331.148L240.031 344.004V228.844C240.012 213.496 247.688 199.156 260.469 190.66L251.59 177.348C234.355 188.812 224.008 208.145 224.031 228.844V244.691L213.688 234.348L202.375 245.66L224.031 267.316V443.059L208.031 435.059V418.602C208.027 378.359 188.68 340.566 156.031 317.035C123.379 293.508 81.4102 287.105 43.2305 299.836L5.50391 312.41C2.21875 313.492 0 316.555 0 320.012C0 323.469 2.21875 326.531 5.50391 327.613L14.0703 330.469C55.1328 344.121 93.4492 364.957 127.23 392.004L195.031 446.242C195.488 446.562 195.984 446.832 196.504 447.043L196.453 447.148L224.031 460.949V480.004H240.031V364.004L268.828 342.402L268.742 342.293C269.07 342.102 269.387 341.891 269.688 341.66C320.348 291.164 386.324 258.895 457.285 249.906L473.023 247.941C476.707 247.477 479.586 244.539 479.98 240.848C480.375 237.156 478.176 233.68 474.672 232.453V232.453Z" fill="#3D7606"/>
<g id="leaf2">
<path id="leaf2_2" d="M307.781 67.7539L304.031 7.50781C303.793 3.71875 300.926 0.617186 297.164 0.0820292C293.414 -0.417971 289.816 1.75781 288.52 5.3164L262.645 77.7305C252.969 104.781 248.023 133.297 248.031 162.027V184.004C248.031 187.238 249.98 190.156 252.969 191.395C255.957 192.629 259.398 191.945 261.688 189.66C293.82 157.516 310.609 113.121 307.781 67.7539Z" fill="#5FA819"/>
</g>
<g id="leaf1">
<path id="leaf1_2" d="M119.492 106.051L66.5586 88.4531C63.8242 87.5391 60.8086 88.168 58.6641 90.0977C56.5234 92.0313 55.5859 94.9648 56.2149 97.7813L65.0156 137.477C79.1055 202.246 136.586 248.328 202.871 248.004H208.031C212.449 248.004 216.031 244.422 216.031 240.004C216.082 179.215 177.176 125.234 119.492 106.051Z" fill="#5FA819"/>
</g>
<g id="Group">
<path id="Vector_2" d="M158.828 212.805C128.172 193.938 103.043 167.312 85.9726 135.621L60.7422 88.7461C57.2539 90.25 55.3437 94.0391 56.2148 97.7383L65.0156 137.434C79.0898 202.223 136.574 248.324 202.871 248.004H208.031C209.852 247.973 211.602 247.313 212.988 246.133L158.828 212.805Z" fill="#589C17"/>
<g id="leaf4">
<path id="leaf4_2" d="M329.773 269.602C312.918 281.637 299.594 297.965 291.184 316.891L287.484 325.211C335.508 284.047 394.539 257.859 457.285 249.891L472.527 248.004H397.215C373.031 247.996 349.453 255.551 329.773 269.602V269.602Z" fill="#589C17"/>
</g>
<g id="leaf3" opacity="0.3">
<path id="leaf3_2" d="M204.223 451.043L204.062 450.164C188.152 362.648 108.512 301.43 19.8477 308.562L16.125 308.859L5.50391 312.402C2.21875 313.484 0 316.547 0 320.004C0 323.461 2.21875 326.523 5.50391 327.602L14.0703 330.461C55.1328 344.117 93.4492 364.953 127.23 392.004L195.031 446.242C195.488 446.562 195.984 446.832 196.504 447.043L196.453 447.148L204.223 451.043Z" fill="#589C17"/>
</g>
</g>
</g>
<defs>
<clipPath id="clip0">
<rect width="480.026" height="480" fill="white"/>
</clipPath>
</defs>
</svg>
