{
  "accessors": [
    {
      "bufferView": 3,
      "componentType": 5126,
      "count": 7578,
      "max": [
        1.9243799448013306,
        2.4514400959014893,
        2.7704000473022461
      ],
      "min": [
        -1.6980500221252441,
        -2.4523699283599854,
        0
      ],
      "type": "VEC3"
    },
    {
      "bufferView": 3,
      "byteOffset": 90936,
      "componentType": 5126,
      "count": 7578,
      "max": [
        1,
        1,
        1
      ],
      "min": [
        -1,
        -1,
        -1
      ],
      "type": "VEC3"
    },
    {
      "bufferView": 4,
      "componentType": 5126,
      "count": 7578,
      "max": [
        1,
        1,
        1,
        1
      ],
      "min": [
        -1,
        -0.99997532367706299,
        -1,
        -1
      ],
      "type": "VEC4"
    },
    {
      "bufferView": 2,
      "componentType": 5126,
      "count": 7578,
      "max": [
        0.98910999298095703,
        0.94628000259399414
      ],
      "min": [
        0.0036899999249726534,
        0.011210000142455101
      ],
      "type": "VEC2"
    },
    {
      "bufferView": 1,
      "componentType": 5125,
      "count": 37392,
      "max": [
        7577
      ],
      "min": [
        0
      ],
      "type": "SCALAR"
    },
    {
      "bufferView": 3,
      "byteOffset": 181872,
      "componentType": 5126,
      "count": 706,
      "max": [
        1.7350200414657593,
        1.5271300077438354,
        2.6177599430084229
      ],
      "min": [
        1.6796200275421143,
        -1.9820799827575684,
        0.20577999949455261
      ],
      "type": "VEC3"
    },
    {
      "bufferView": 3,
      "byteOffset": 190344,
      "componentType": 5126,
      "count": 706,
      "max": [
        0.999988853931427,
        0.99991178512573242,
        0.99931788444519043
      ],
      "min": [
        -0.999988853931427,
        -0.99904525279998779,
        -0.99973452091217041
      ],
      "type": "VEC3"
    },
    {
      "bufferView": 4,
      "byteOffset": 121248,
      "componentType": 5126,
      "count": 706,
      "max": [
        0.99986749887466431,
        0.999988853931427,
        0.60475707054138184,
        1
      ],
      "min": [
        -0.99998927116394043,
        -0.57171458005905151,
        -0.99856936931610107,
        -1
      ],
      "type": "VEC4"
    },
    {
      "bufferView": 2,
      "byteOffset": 60624,
      "componentType": 5126,
      "count": 706,
      "max": [
        0.27794000506401062,
        0.85193002223968506
      ],
      "min": [
        0.068489998579025269,
        0.39184999465942383
      ],
      "type": "VEC2"
    },
    {
      "bufferView": 1,
      "byteOffset": 149568,
      "componentType": 5125,
      "count": 2976,
      "max": [
        705
      ],
      "min": [
        0
      ],
      "type": "SCALAR"
    },
    {
      "bufferView": 3,
      "byteOffset": 198816,
      "componentType": 5126,
      "count": 816,
      "max": [
        1.1066399812698364,
        0.54957997798919678,
        0.32168999314308167
      ],
      "min": [
        -0.79144001007080078,
        -1.3484899997711182,
        0.24165999889373779
      ],
      "type": "VEC3"
    },
    {
      "bufferView": 3,
      "byteOffset": 208608,
      "componentType": 5126,
      "count": 816,
      "max": [
        1,
        1,
        0.9999498724937439
      ],
      "min": [
        -1,
        -1,
        -0.9999498724937439
      ],
      "type": "VEC3"
    },
    {
      "bufferView": 4,
      "byteOffset": 132544,
      "componentType": 5126,
      "count": 816,
      "max": [
        0.99042123556137085,
        0.99840980768203735,
        0.99999994039535522,
        1
      ],
      "min": [
        -0.99695229530334473,
        -0.99360442161560059,
        -0.99999994039535522,
        1
      ],
      "type": "VEC4"
    },
    {
      "bufferView": 1,
      "byteOffset": 161472,
      "componentType": 5125,
      "count": 4608,
      "max": [
        815
      ],
      "min": [
        0
      ],
      "type": "SCALAR"
    },
    {
      "bufferView": 3,
      "byteOffset": 218400,
      "componentType": 5126,
      "count": 898,
      "max": [
        1.4253400564193726,
        0.86827999353408813,
        0.48309999704360962
      ],
      "min": [
        -1.1101399660110474,
        -1.667199969291687,
        0.33327999711036682
      ],
      "type": "VEC3"
    },
    {
      "bufferView": 3,
      "byteOffset": 229176,
      "componentType": 5126,
      "count": 898,
      "max": [
        1,
        1,
        1
      ],
      "min": [
        -1,
        -1,
        -1
      ],
      "type": "VEC3"
    },
    {
      "bufferView": 4,
      "byteOffset": 145600,
      "componentType": 5126,
      "count": 898,
      "max": [
        0.873954176902771,
        0.99466627836227417,
        1,
        1
      ],
      "min": [
        -0.76715511083602905,
        -0.62674510478973389,
        -1,
        1
      ],
      "type": "VEC4"
    },
    {
      "bufferView": 1,
      "byteOffset": 179904,
      "componentType": 5125,
      "count": 5088,
      "max": [
        897
      ],
      "min": [
        0
      ],
      "type": "SCALAR"
    },
    {
      "bufferView": 5,
      "componentType": 5126,
      "count": 3,
      "max": [
        1,
        0,
        0,
        0,
        0,
        1,
        0,
        0,
        0,
        1,
        1,
        0,
        0,
        2.4514400959014893,
        0,
        1
      ],
      "min": [
        1,
        0,
        0,
        0,
        0,
        0,
        -1,
        0,
        0,
        0,
        0,
        0,
        -1.5196199417114258,
        0,
        -1.385200023651123,
        1
      ],
      "type": "MAT4"
    },
    {
      "bufferView": 0,
      "componentType": 5123,
      "count": 7578,
      "max": [
        2,
        1,
        1,
        1
      ],
      "min": [
        1,
        1,
        1,
        1
      ],
      "type": "VEC4"
    },
    {
      "bufferView": 4,
      "byteOffset": 159968,
      "componentType": 5126,
      "count": 7578,
      "max": [
        1,
        0,
        0,
        0
      ],
      "min": [
        1,
        0,
        0,
        0
      ],
      "type": "VEC4"
    },
    {
      "bufferView": 0,
      "byteOffset": 60624,
      "componentType": 5123,
      "count": 706,
      "max": [
        2,
        2,
        2,
        2
      ],
      "min": [
        2,
        2,
        2,
        2
      ],
      "type": "VEC4"
    },
    {
      "bufferView": 4,
      "byteOffset": 281216,
      "componentType": 5126,
      "count": 706,
      "max": [
        1,
        0,
        0,
        0
      ],
      "min": [
        1,
        0,
        0,
        0
      ],
      "type": "VEC4"
    },
    {
      "bufferView": 6,
      "componentType": 5126,
      "count": 1,
      "max": [
        0
      ],
      "min": [
        0
      ],
      "type": "SCALAR"
    },
    {
      "bufferView": 7,
      "componentType": 5126,
      "count": 1,
      "max": [
        0.70710676908493042,
        0,
        0,
        0.70710676908493042
      ],
      "min": [
        0.70710676908493042,
        0,
        0,
        0.70710676908493042
      ],
      "type": "VEC4"
    },
    {
      "bufferView": 6,
      "byteOffset": 4,
      "componentType": 5126,
      "count": 80,
      "max": [
        5.875
      ],
      "min": [
        0
      ],
      "type": "SCALAR"
    },
    {
      "bufferView": 7,
      "byteOffset": 16,
      "componentType": 5126,
      "count": 80,
      "max": [
        -0.50000226497650146,
        0,
        0,
        0.70710676908493042
      ],
      "min": [
        -0.70710676908493042,
        -0.50000226497650146,
        -0.50000226497650146,
        0.50000226497650146
      ],
      "type": "VEC4"
    }
  ],
  "animations": [
    {
      "channels": [
        {
          "sampler": 0,
          "target": {
            "node": 5,
            "path": "rotation"
          }
        },
        {
          "sampler": 1,
          "target": {
            "node": 6,
            "path": "rotation"
          }
        }
      ],
      "name": "ArmatureAction.002",
      "samplers": [
        {
          "input": 23,
          "interpolation": "LINEAR",
          "output": 24
        },
        {
          "input": 25,
          "interpolation": "LINEAR",
          "output": 26
        }
      ]
    }
  ],
  "asset": {
    "extras": {
      "author": "3DHaupt (https://sketchfab.com/dennish2010)",
      "license": "CC-BY-4.0 (http://creativecommons.org/licenses/by/4.0/)",
      "source": "https://sketchfab.com/models/951cea7c961541d6a27a9d1abca27ee9",
      "title": "Microwave Rigged (Free - NonCommercial)"
    },
    "generator": "Sketchfab-3.28.5",
    "version": "2.0"
  },
  "bufferViews": [
    {
      "buffer": 0,
      "byteLength": 66272,
      "byteOffset": 0,
      "byteStride": 8,
      "name": "shortBufferViews",
      "target": 34962
    },
    {
      "buffer": 0,
      "byteLength": 200256,
      "byteOffset": 66272,
      "name": "floatBufferViews",
      "target": 34963
    },
    {
      "buffer": 0,
      "byteLength": 66272,
      "byteOffset": 266528,
      "byteStride": 8,
      "name": "floatBufferViews",
      "target": 34962
    },
    {
      "buffer": 0,
      "byteLength": 239952,
      "byteOffset": 332800,
      "byteStride": 12,
      "name": "floatBufferViews",
      "target": 34962
    },
    {
      "buffer": 0,
      "byteLength": 292512,
      "byteOffset": 572752,
      "byteStride": 16,
      "name": "floatBufferViews",
      "target": 34962
    },
    {
      "buffer": 0,
      "byteLength": 192,
      "byteOffset": 865264,
      "byteStride": 64,
      "name": "floatBufferViews"
    },
    {
      "buffer": 0,
      "byteLength": 324,
      "byteOffset": 865456,
      "name": "floatBufferViews"
    },
    {
      "buffer": 0,
      "byteLength": 1296,
      "byteOffset": 865780,
      "byteStride": 16,
      "name": "floatBufferViews"
    }
  ],
  "buffers": [
    {
      "byteLength": 867076,
      "uri": "scene.bin"
    }
  ],
  "images": [
    {
      "uri": "textures/glass_baseColor.jpg"
    },
    {
      "uri": "textures/microwave_baseColor.jpg"
    }
  ],
  "materials": [
    {
      "doubleSided": true,
      "emissiveFactor": [
        0,
        0,
        0
      ],
      "name": "microwave",
      "pbrMetallicRoughness": {
        "baseColorFactor": [
          0.92631031730000002,
          0.92631031730000002,
          0.92631031730000002,
          1
        ],
        "baseColorTexture": {
          "index": 1,
          "texCoord": 0
        },
        "metallicFactor": 0,
        "roughnessFactor": 0.59999999999999998
      }
    },
    {
      "alphaMode": "BLEND",
      "doubleSided": true,
      "emissiveFactor": [
        0,
        0,
        0
      ],
      "name": "glass",
      "pbrMetallicRoughness": {
        "baseColorFactor": [
          1,
          1,
          1,
          0.4384695569
        ],
        "baseColorTexture": {
          "index": 0,
          "texCoord": 0
        },
        "metallicFactor": 1,
        "roughnessFactor": 0
      }
    },
    {
      "doubleSided": true,
      "emissiveFactor": [
        0,
        0,
        0
      ],
      "name": "Material.005",
      "pbrMetallicRoughness": {
        "baseColorFactor": [
          0.80000001190000003,
          0.80000001190000003,
          0.80000001190000003,
          1
        ],
        "metallicFactor": 0,
        "roughnessFactor": 0.59999999999999998
      }
    },
    {
      "alphaMode": "BLEND",
      "doubleSided": true,
      "emissiveFactor": [
        0,
        0,
        0
      ],
      "name": "Glas_2",
      "pbrMetallicRoughness": {
        "baseColorFactor": [
          0.80000001190000003,
          0.80000001190000003,
          0.80000001190000003,
          0.40702301600000002
        ],
        "metallicFactor": 1,
        "roughnessFactor": 0.083543021699999997
      }
    }
  ],
  "meshes": [
    {
      "name": "Cube",
      "primitives": [
        {
          "attributes": {
            "JOINTS_0": 19,
            "NORMAL": 1,
            "POSITION": 0,
            "TANGENT": 2,
            "TEXCOORD_0": 3,
            "WEIGHTS_0": 20
          },
          "indices": 4,
          "material": 0,
          "mode": 4
        }
      ]
    },
    {
      "name": "Cube",
      "primitives": [
        {
          "attributes": {
            "JOINTS_0": 21,
            "NORMAL": 6,
            "POSITION": 5,
            "TANGENT": 7,
            "TEXCOORD_0": 8,
            "WEIGHTS_0": 22
          },
          "indices": 9,
          "material": 1,
          "mode": 4
        }
      ]
    },
    {
      "name": "Cube",
      "primitives": [
        {
          "attributes": {
            "NORMAL": 11,
            "POSITION": 10,
            "TANGENT": 12
          },
          "indices": 13,
          "material": 2,
          "mode": 4
        }
      ]
    },
    {
      "name": "Cube",
      "primitives": [
        {
          "attributes": {
            "NORMAL": 15,
            "POSITION": 14,
            "TANGENT": 16
          },
          "indices": 17,
          "material": 3,
          "mode": 4
        }
      ]
    }
  ],
  "nodes": [
    {
      "children": [
        1
      ],
      "name": "RootNode (gltf orientation matrix)",
      "rotation": [
        -0.70710678118654746,
        -0,
        -0,
        0.70710678118654757
      ]
    },
    {
      "children": [
        2
      ],
      "name": "RootNode (model correction matrix)"
    },
    {
      "children": [
        3
      ],
      "name": "Root"
    },
    {
      "children": [
        4,
        8,
        9,
        7
      ],
      "name": "Armature"
    },
    {
      "children": [
        5
      ],
      "name": "Armature_rootJoint"
    },
    {
      "children": [
        6
      ],
      "name": "Bone_Armature",
      "rotation": [
        0.7071068286895752,
        0,
        0,
        0.7071068286895752
      ],
      "scale": [
        1,
        1,
        1
      ],
      "translation": [
        0,
        0,
        0
      ]
    },
    {
      "name": "Bone.001_Armature",
      "rotation": [
        -0.7071068286895752,
        0,
        0,
        0.7071068286895752
      ],
      "scale": [
        1,
        1,
        1
      ],
      "translation": [
        1.5196199417114258,
        1.385200023651123,
        2.4514400959014893
      ]
    },
    {
      "children": [
        10,
        11
      ],
      "name": "Cube"
    },
    {
      "mesh": 0,
      "name": "Cube_0",
      "skin": 0
    },
    {
      "mesh": 1,
      "name": "Cube_3",
      "skin": 0
    },
    {
      "mesh": 2,
      "name": "Cube"
    },
    {
      "mesh": 3,
      "name": "Cube"
    }
  ],
  "samplers": [
    {
      "magFilter": 9729,
      "minFilter": 9987,
      "wrapS": 10497,
      "wrapT": 10497
    }
  ],
  "scene": 0,
  "scenes": [
    {
      "name": "OSG_Scene",
      "nodes": [
        0
      ]
    }
  ],
  "skins": [
    {
      "inverseBindMatrices": 18,
      "joints": [
        4,
        5,
        6
      ],
      "skeleton": 4
    }
  ],
  "textures": [
    {
      "sampler": 0,
      "source": 0
    },
    {
      "sampler": 0,
      "source": 1
    }
  ]
}

