{
  "accessors": [
    {
      "bufferView": 2,
      "componentType": 5126,
      "count": 800,
      "max": [
        6.536749362945557,
        19.502521514892578,
        6.536749362945557
      ],
      "min": [
        -6.536749362945557,
        0.041196346282958984,
        -6.536749362945557
      ],
      "type": "VEC3"
    },
    {
      "bufferView": 2,
      "byteOffset": 9600,
      "componentType": 5126,
      "count": 800,
      "max": [
        1.0,
        1.0,
        1.0
      ],
      "min": [
        -1.0,
        -1.0,
        -1.0
      ],
      "type": "VEC3"
    },
    {
      "bufferView": 3,
      "componentType": 5126,
      "count": 800,
      "max": [
        1.0,
        1.0,
        1.0,
        1.0
      ],
      "min": [
        -0.21331632137298584,
        -1.0,
        -1.0,
        1.0
      ],
      "type": "VEC4"
    },
    {
      "bufferView": 1,
      "componentType": 5126,
      "count": 800,
      "max": [
        0.9371114373207092,
        0.9980080127716064
      ],
      "min": [
        0.0018704819958657026,
        0.00199203216470778
      ],
      "type": "VEC2"
    },
    {
      "bufferView": 0,
      "componentType": 5125,
      "count": 2064,
      "type": "SCALAR"
    },
    {
      "bufferView": 2,
      "byteOffset": 19200,
      "componentType": 5126,
      "count": 1769,
      "max": [
        6.966017246246338,
        19.502521514892578,
        13.320440292358398
      ],
      "min": [
        -4.044524669647217,
        2.054928779602051,
        4.527493953704834
      ],
      "type": "VEC3"
    },
    {
      "bufferView": 2,
      "byteOffset": 40428,
      "componentType": 5126,
      "count": 1769,
      "max": [
        0.9978318810462952,
        1.0,
        0.9965986609458923
      ],
      "min": [
        -0.9999079704284668,
        -1.0,
        -0.9994921088218689
      ],
      "type": "VEC3"
    },
    {
      "bufferView": 3,
      "byteOffset": 12800,
      "componentType": 5126,
      "count": 1769,
      "max": [
        0.9996671676635742,
        1.0,
        0.9999538660049438,
        1.0
      ],
      "min": [
        -0.9997292757034302,
        -1.0,
        -0.9999089241027832,
        -1.0
      ],
      "type": "VEC4"
    },
    {
      "bufferView": 1,
      "byteOffset": 6400,
      "componentType": 5126,
      "count": 1769,
      "max": [
        0.9980079531669617,
        0.9815199375152588
      ],
      "min": [
        0.0019920319318771362,
        0.001959121786057949
      ],
      "type": "VEC2"
    },
    {
      "bufferView": 0,
      "byteOffset": 8256,
      "componentType": 5125,
      "count": 5268,
      "type": "SCALAR"
    }
  ],
  "asset": {
    "extras": {
      "author": "Egg Studio (https://sketchfab.com/Estelle.Ggo)",
      "license": "CC-BY-NC-4.0 (http://creativecommons.org/licenses/by-nc/4.0/)",
      "source": "https://sketchfab.com/3d-models/little-yellow-fridge-f99a5517339d486b9551a16097217c6f",
      "title": "Little Yellow Fridge"
    },
    "generator": "Sketchfab-10.55.0",
    "version": "2.0"
  },
  "bufferViews": [
    {
      "buffer": 0,
      "byteLength": 29328,
      "name": "floatBufferViews",
      "target": 34963
    },
    {
      "buffer": 0,
      "byteLength": 20552,
      "byteOffset": 29328,
      "byteStride": 8,
      "name": "floatBufferViews",
      "target": 34962
    },
    {
      "buffer": 0,
      "byteLength": 61656,
      "byteOffset": 49880,
      "byteStride": 12,
      "name": "floatBufferViews",
      "target": 34962
    },
    {
      "buffer": 0,
      "byteLength": 41104,
      "byteOffset": 111536,
      "byteStride": 16,
      "name": "floatBufferViews",
      "target": 34962
    }
  ],
  "buffers": [
    {
      "byteLength": 152640,
      "uri": "scene.bin"
    }
  ],
  "images": [
    {
      "uri": "textures/Fridge_baseColor.png"
    },
    {
      "uri": "textures/Fridge_metallicRoughness.png"
    },
    {
      "uri": "textures/Fridge_normal.png"
    },
    {
      "uri": "textures/Fridge_Door2_baseColor.png"
    },
    {
      "uri": "textures/Fridge_Door2_metallicRoughness.png"
    },
    {
      "uri": "textures/Fridge_Door2_normal.png"
    }
  ],
  "materials": [
    {
      "doubleSided": true,
      "name": "Fridge",
      "normalTexture": {
        "index": 2
      },
      "pbrMetallicRoughness": {
        "baseColorTexture": {
          "index": 0
        },
        "metallicRoughnessTexture": {
          "index": 1
        }
      }
    },
    {
      "doubleSided": true,
      "name": "Fridge_Door2",
      "normalTexture": {
        "index": 5
      },
      "pbrMetallicRoughness": {
        "baseColorTexture": {
          "index": 3
        },
        "metallicRoughnessTexture": {
          "index": 4
        }
      }
    }
  ],
  "meshes": [
    {
      "name": "polySurface1_Fridge_0",
      "primitives": [
        {
          "attributes": {
            "NORMAL": 1,
            "POSITION": 0,
            "TANGENT": 2,
            "TEXCOORD_0": 3
          },
          "indices": 4,
          "material": 0,
          "mode": 4
        }
      ]
    },
    {
      "name": "polySurface16_Fridge_Door2_0",
      "primitives": [
        {
          "attributes": {
            "NORMAL": 6,
            "POSITION": 5,
            "TANGENT": 7,
            "TEXCOORD_0": 8
          },
          "indices": 9,
          "material": 1,
          "mode": 4
        }
      ]
    }
  ],
  "nodes": [
    {
      "children": [
        1
      ],
      "matrix": [
        1.0,
        0.0,
        0.0,
        0.0,
        0.0,
        2.220446049250313e-16,
        -1.0,
        0.0,
        0.0,
        1.0,
        2.220446049250313e-16,
        0.0,
        0.0,
        0.0,
        0.0,
        1.0
      ],
      "name": "Sketchfab_model"
    },
    {
      "children": [
        2
      ],
      "matrix": [
        1.0,
        0.0,
        0.0,
        0.0,
        0.0,
        0.0,
        1.0,
        0.0,
        0.0,
        -1.0,
        0.0,
        0.0,
        0.0,
        0.0,
        0.0,
        1.0
      ],
      "name": "Fridge_FinalMesh_B.fbx"
    },
    {
      "children": [
        3,
        5
      ],
      "name": "RootNode"
    },
    {
      "children": [
        4
      ],
      "name": "polySurface1"
    },
    {
      "mesh": 0,
      "name": "polySurface1_Fridge_0"
    },
    {
      "children": [
        6
      ],
      "name": "polySurface16"
    },
    {
      "mesh": 1,
      "name": "polySurface16_Fridge_Door2_0"
    }
  ],
  "samplers": [
    {
      "magFilter": 9729,
      "minFilter": 9987,
      "wrapS": 10497,
      "wrapT": 10497
    }
  ],
  "scene": 0,
  "scenes": [
    {
      "name": "Sketchfab_Scene",
      "nodes": [
        0
      ]
    }
  ],
  "textures": [
    {
      "sampler": 0,
      "source": 0
    },
    {
      "sampler": 0,
      "source": 1
    },
    {
      "sampler": 0,
      "source": 2
    },
    {
      "sampler": 0,
      "source": 3
    },
    {
      "sampler": 0,
      "source": 4
    },
    {
      "sampler": 0,
      "source": 5
    }
  ]
}
